solid model
  facet normal 0.0 0.0 -278.115294937 
    outer loop
      vertex 0.0 30.0 0.0 
      vertex 9.27050983125 28.5316954889 0.0 
      vertex 0 0 0 
    endloop
  endfacet
  facet normal 0.0 0.0 -278.115294937 
    outer loop
      vertex 0.0 30.0 200.0 
      vertex 9.27050983125 28.5316954889 200.0 
      vertex 0.0 0.0 200.0 
    endloop
  endfacet
  facet normal -293.660902229 -1854.10196625 0.0 
    outer loop
      vertex 0.0 30.0 0.0 
      vertex 9.27050983125 28.5316954889 0.0 
      vertex 9.27050983125 28.5316954889 200.0 
    endloop
  endfacet
  facet normal 293.660902229 1854.10196625 -0.0 
    outer loop
      vertex 0.0 30.0 0.0 
      vertex 0.0 30.0 200.0 
      vertex 9.27050983125 28.5316954889 200.0 
    endloop
  endfacet
  facet normal 0.0 -0.0 -278.115294937 
    outer loop
      vertex 9.27050983125 28.5316954889 0.0 
      vertex 17.6335575688 24.2705098312 0.0 
      vertex 0 0 0 
    endloop
  endfacet
  facet normal 0.0 -0.0 -278.115294937 
    outer loop
      vertex 9.27050983125 28.5316954889 200.0 
      vertex 17.6335575688 24.2705098312 200.0 
      vertex 0.0 0.0 200.0 
    endloop
  endfacet
  facet normal -852.237131521 -1672.60954751 0.0 
    outer loop
      vertex 9.27050983125 28.5316954889 0.0 
      vertex 17.6335575688 24.2705098312 0.0 
      vertex 17.6335575688 24.2705098312 200.0 
    endloop
  endfacet
  facet normal 852.237131521 1672.60954751 -0.0 
    outer loop
      vertex 9.27050983125 28.5316954889 0.0 
      vertex 9.27050983125 28.5316954889 200.0 
      vertex 17.6335575688 24.2705098312 200.0 
    endloop
  endfacet
  facet normal 0.0 -0.0 -278.115294937 
    outer loop
      vertex 17.6335575688 24.2705098312 0.0 
      vertex 24.2705098312 17.6335575688 0.0 
      vertex 0 0 0 
    endloop
  endfacet
  facet normal 0.0 -0.0 -278.115294937 
    outer loop
      vertex 17.6335575688 24.2705098312 200.0 
      vertex 24.2705098312 17.6335575688 200.0 
      vertex 0.0 0.0 200.0 
    endloop
  endfacet
  facet normal -1327.39045249 -1327.39045249 0.0 
    outer loop
      vertex 17.6335575688 24.2705098312 0.0 
      vertex 24.2705098312 17.6335575688 0.0 
      vertex 24.2705098312 17.6335575688 200.0 
    endloop
  endfacet
  facet normal 1327.39045249 1327.39045249 -0.0 
    outer loop
      vertex 17.6335575688 24.2705098312 0.0 
      vertex 17.6335575688 24.2705098312 200.0 
      vertex 24.2705098312 17.6335575688 200.0 
    endloop
  endfacet
  facet normal 0.0 -0.0 -278.115294937 
    outer loop
      vertex 24.2705098312 17.6335575688 0.0 
      vertex 28.5316954889 9.27050983125 0.0 
      vertex 0 0 0 
    endloop
  endfacet
  facet normal 0.0 -0.0 -278.115294937 
    outer loop
      vertex 24.2705098312 17.6335575688 200.0 
      vertex 28.5316954889 9.27050983125 200.0 
      vertex 0.0 0.0 200.0 
    endloop
  endfacet
  facet normal -1672.60954751 -852.237131521 0.0 
    outer loop
      vertex 24.2705098312 17.6335575688 0.0 
      vertex 28.5316954889 9.27050983125 0.0 
      vertex 28.5316954889 9.27050983125 200.0 
    endloop
  endfacet
  facet normal 1672.60954751 852.237131521 -0.0 
    outer loop
      vertex 24.2705098312 17.6335575688 0.0 
      vertex 24.2705098312 17.6335575688 200.0 
      vertex 28.5316954889 9.27050983125 200.0 
    endloop
  endfacet
  facet normal 0.0 -0.0 -278.115294937 
    outer loop
      vertex 28.5316954889 9.27050983125 0.0 
      vertex 30.0 1.83697019872e-15 0.0 
      vertex 0 0 0 
    endloop
  endfacet
  facet normal 0.0 -0.0 -278.115294937 
    outer loop
      vertex 28.5316954889 9.27050983125 200.0 
      vertex 30.0 1.83697019872e-15 200.0 
      vertex 0.0 0.0 200.0 
    endloop
  endfacet
  facet normal -1854.10196625 -293.660902229 0.0 
    outer loop
      vertex 28.5316954889 9.27050983125 0.0 
      vertex 30.0 1.83697019872e-15 0.0 
      vertex 30.0 1.83697019872e-15 200.0 
    endloop
  endfacet
  facet normal 1854.10196625 293.660902229 -0.0 
    outer loop
      vertex 28.5316954889 9.27050983125 0.0 
      vertex 28.5316954889 9.27050983125 200.0 
      vertex 30.0 1.83697019872e-15 200.0 
    endloop
  endfacet
  facet normal 0.0 0.0 -278.115294937 
    outer loop
      vertex 30.0 1.83697019872e-15 0.0 
      vertex 28.5316954889 -9.27050983125 0.0 
      vertex 0 0 0 
    endloop
  endfacet
  facet normal 0.0 0.0 -278.115294937 
    outer loop
      vertex 30.0 1.83697019872e-15 200.0 
      vertex 28.5316954889 -9.27050983125 200.0 
      vertex 0.0 0.0 200.0 
    endloop
  endfacet
  facet normal -1854.10196625 293.660902229 0.0 
    outer loop
      vertex 30.0 1.83697019872e-15 0.0 
      vertex 28.5316954889 -9.27050983125 0.0 
      vertex 28.5316954889 -9.27050983125 200.0 
    endloop
  endfacet
  facet normal 1854.10196625 -293.660902229 0.0 
    outer loop
      vertex 30.0 1.83697019872e-15 0.0 
      vertex 30.0 1.83697019872e-15 200.0 
      vertex 28.5316954889 -9.27050983125 200.0 
    endloop
  endfacet
  facet normal -0.0 0.0 -278.115294937 
    outer loop
      vertex 28.5316954889 -9.27050983125 0.0 
      vertex 24.2705098312 -17.6335575688 0.0 
      vertex 0 0 0 
    endloop
  endfacet
  facet normal -0.0 0.0 -278.115294937 
    outer loop
      vertex 28.5316954889 -9.27050983125 200.0 
      vertex 24.2705098312 -17.6335575688 200.0 
      vertex 0.0 0.0 200.0 
    endloop
  endfacet
  facet normal -1672.60954751 852.237131521 0.0 
    outer loop
      vertex 28.5316954889 -9.27050983125 0.0 
      vertex 24.2705098312 -17.6335575688 0.0 
      vertex 24.2705098312 -17.6335575688 200.0 
    endloop
  endfacet
  facet normal 1672.60954751 -852.237131521 0.0 
    outer loop
      vertex 28.5316954889 -9.27050983125 0.0 
      vertex 28.5316954889 -9.27050983125 200.0 
      vertex 24.2705098312 -17.6335575688 200.0 
    endloop
  endfacet
  facet normal -0.0 0.0 -278.115294937 
    outer loop
      vertex 24.2705098312 -17.6335575688 0.0 
      vertex 17.6335575688 -24.2705098312 0.0 
      vertex 0 0 0 
    endloop
  endfacet
  facet normal -0.0 0.0 -278.115294937 
    outer loop
      vertex 24.2705098312 -17.6335575688 200.0 
      vertex 17.6335575688 -24.2705098312 200.0 
      vertex 0.0 0.0 200.0 
    endloop
  endfacet
  facet normal -1327.39045249 1327.39045249 0.0 
    outer loop
      vertex 24.2705098312 -17.6335575688 0.0 
      vertex 17.6335575688 -24.2705098312 0.0 
      vertex 17.6335575688 -24.2705098312 200.0 
    endloop
  endfacet
  facet normal 1327.39045249 -1327.39045249 0.0 
    outer loop
      vertex 24.2705098312 -17.6335575688 0.0 
      vertex 24.2705098312 -17.6335575688 200.0 
      vertex 17.6335575688 -24.2705098312 200.0 
    endloop
  endfacet
  facet normal -0.0 0.0 -278.115294937 
    outer loop
      vertex 17.6335575688 -24.2705098312 0.0 
      vertex 9.27050983125 -28.5316954889 0.0 
      vertex 0 0 0 
    endloop
  endfacet
  facet normal -0.0 0.0 -278.115294937 
    outer loop
      vertex 17.6335575688 -24.2705098312 200.0 
      vertex 9.27050983125 -28.5316954889 200.0 
      vertex 0.0 0.0 200.0 
    endloop
  endfacet
  facet normal -852.237131521 1672.60954751 0.0 
    outer loop
      vertex 17.6335575688 -24.2705098312 0.0 
      vertex 9.27050983125 -28.5316954889 0.0 
      vertex 9.27050983125 -28.5316954889 200.0 
    endloop
  endfacet
  facet normal 852.237131521 -1672.60954751 0.0 
    outer loop
      vertex 17.6335575688 -24.2705098312 0.0 
      vertex 17.6335575688 -24.2705098312 200.0 
      vertex 9.27050983125 -28.5316954889 200.0 
    endloop
  endfacet
  facet normal -0.0 0.0 -278.115294937 
    outer loop
      vertex 9.27050983125 -28.5316954889 0.0 
      vertex 3.67394039744e-15 -30.0 0.0 
      vertex 0 0 0 
    endloop
  endfacet
  facet normal -0.0 0.0 -278.115294937 
    outer loop
      vertex 9.27050983125 -28.5316954889 200.0 
      vertex 3.67394039744e-15 -30.0 200.0 
      vertex 0.0 0.0 200.0 
    endloop
  endfacet
  facet normal -293.660902229 1854.10196625 0.0 
    outer loop
      vertex 9.27050983125 -28.5316954889 0.0 
      vertex 3.67394039744e-15 -30.0 0.0 
      vertex 3.67394039744e-15 -30.0 200.0 
    endloop
  endfacet
  facet normal 293.660902229 -1854.10196625 0.0 
    outer loop
      vertex 9.27050983125 -28.5316954889 0.0 
      vertex 9.27050983125 -28.5316954889 200.0 
      vertex 3.67394039744e-15 -30.0 200.0 
    endloop
  endfacet
  facet normal 0.0 0.0 -278.115294937 
    outer loop
      vertex 3.67394039744e-15 -30.0 0.0 
      vertex -9.27050983125 -28.5316954889 0.0 
      vertex 0 0 0 
    endloop
  endfacet
  facet normal 0.0 0.0 -278.115294937 
    outer loop
      vertex 3.67394039744e-15 -30.0 200.0 
      vertex -9.27050983125 -28.5316954889 200.0 
      vertex 0.0 0.0 200.0 
    endloop
  endfacet
  facet normal 293.660902229 1854.10196625 0.0 
    outer loop
      vertex 3.67394039744e-15 -30.0 0.0 
      vertex -9.27050983125 -28.5316954889 0.0 
      vertex -9.27050983125 -28.5316954889 200.0 
    endloop
  endfacet
  facet normal -293.660902229 -1854.10196625 0.0 
    outer loop
      vertex 3.67394039744e-15 -30.0 0.0 
      vertex 3.67394039744e-15 -30.0 200.0 
      vertex -9.27050983125 -28.5316954889 200.0 
    endloop
  endfacet
  facet normal 0.0 0.0 -278.115294937 
    outer loop
      vertex -9.27050983125 -28.5316954889 0.0 
      vertex -17.6335575688 -24.2705098312 0.0 
      vertex 0 0 0 
    endloop
  endfacet
  facet normal 0.0 0.0 -278.115294937 
    outer loop
      vertex -9.27050983125 -28.5316954889 200.0 
      vertex -17.6335575688 -24.2705098312 200.0 
      vertex 0.0 0.0 200.0 
    endloop
  endfacet
  facet normal 852.237131521 1672.60954751 0.0 
    outer loop
      vertex -9.27050983125 -28.5316954889 0.0 
      vertex -17.6335575688 -24.2705098312 0.0 
      vertex -17.6335575688 -24.2705098312 200.0 
    endloop
  endfacet
  facet normal -852.237131521 -1672.60954751 0.0 
    outer loop
      vertex -9.27050983125 -28.5316954889 0.0 
      vertex -9.27050983125 -28.5316954889 200.0 
      vertex -17.6335575688 -24.2705098312 200.0 
    endloop
  endfacet
  facet normal 0.0 0.0 -278.115294937 
    outer loop
      vertex -17.6335575688 -24.2705098312 0.0 
      vertex -24.2705098312 -17.6335575688 0.0 
      vertex 0 0 0 
    endloop
  endfacet
  facet normal 0.0 0.0 -278.115294937 
    outer loop
      vertex -17.6335575688 -24.2705098312 200.0 
      vertex -24.2705098312 -17.6335575688 200.0 
      vertex 0.0 0.0 200.0 
    endloop
  endfacet
  facet normal 1327.39045249 1327.39045249 0.0 
    outer loop
      vertex -17.6335575688 -24.2705098312 0.0 
      vertex -24.2705098312 -17.6335575688 0.0 
      vertex -24.2705098312 -17.6335575688 200.0 
    endloop
  endfacet
  facet normal -1327.39045249 -1327.39045249 0.0 
    outer loop
      vertex -17.6335575688 -24.2705098312 0.0 
      vertex -17.6335575688 -24.2705098312 200.0 
      vertex -24.2705098312 -17.6335575688 200.0 
    endloop
  endfacet
  facet normal 0.0 0.0 -278.115294937 
    outer loop
      vertex -24.2705098312 -17.6335575688 0.0 
      vertex -28.5316954889 -9.27050983125 0.0 
      vertex 0 0 0 
    endloop
  endfacet
  facet normal 0.0 0.0 -278.115294937 
    outer loop
      vertex -24.2705098312 -17.6335575688 200.0 
      vertex -28.5316954889 -9.27050983125 200.0 
      vertex 0.0 0.0 200.0 
    endloop
  endfacet
  facet normal 1672.60954751 852.237131521 0.0 
    outer loop
      vertex -24.2705098312 -17.6335575688 0.0 
      vertex -28.5316954889 -9.27050983125 0.0 
      vertex -28.5316954889 -9.27050983125 200.0 
    endloop
  endfacet
  facet normal -1672.60954751 -852.237131521 0.0 
    outer loop
      vertex -24.2705098312 -17.6335575688 0.0 
      vertex -24.2705098312 -17.6335575688 200.0 
      vertex -28.5316954889 -9.27050983125 200.0 
    endloop
  endfacet
  facet normal 0.0 0.0 -278.115294937 
    outer loop
      vertex -28.5316954889 -9.27050983125 0.0 
      vertex -30.0 -5.51091059616e-15 0.0 
      vertex 0 0 0 
    endloop
  endfacet
  facet normal 0.0 0.0 -278.115294937 
    outer loop
      vertex -28.5316954889 -9.27050983125 200.0 
      vertex -30.0 -5.51091059616e-15 200.0 
      vertex 0.0 0.0 200.0 
    endloop
  endfacet
  facet normal 1854.10196625 293.660902229 0.0 
    outer loop
      vertex -28.5316954889 -9.27050983125 0.0 
      vertex -30.0 -5.51091059616e-15 0.0 
      vertex -30.0 -5.51091059616e-15 200.0 
    endloop
  endfacet
  facet normal -1854.10196625 -293.660902229 0.0 
    outer loop
      vertex -28.5316954889 -9.27050983125 0.0 
      vertex -28.5316954889 -9.27050983125 200.0 
      vertex -30.0 -5.51091059616e-15 200.0 
    endloop
  endfacet
  facet normal 0.0 0.0 -278.115294937 
    outer loop
      vertex -30.0 -5.51091059616e-15 0.0 
      vertex -28.5316954889 9.27050983125 0.0 
      vertex 0 0 0 
    endloop
  endfacet
  facet normal 0.0 0.0 -278.115294937 
    outer loop
      vertex -30.0 -5.51091059616e-15 200.0 
      vertex -28.5316954889 9.27050983125 200.0 
      vertex 0.0 0.0 200.0 
    endloop
  endfacet
  facet normal 1854.10196625 -293.660902229 0.0 
    outer loop
      vertex -30.0 -5.51091059616e-15 0.0 
      vertex -28.5316954889 9.27050983125 0.0 
      vertex -28.5316954889 9.27050983125 200.0 
    endloop
  endfacet
  facet normal -1854.10196625 293.660902229 0.0 
    outer loop
      vertex -30.0 -5.51091059616e-15 0.0 
      vertex -30.0 -5.51091059616e-15 200.0 
      vertex -28.5316954889 9.27050983125 200.0 
    endloop
  endfacet
  facet normal 0.0 0.0 -278.115294937 
    outer loop
      vertex -28.5316954889 9.27050983125 0.0 
      vertex -24.2705098312 17.6335575688 0.0 
      vertex 0 0 0 
    endloop
  endfacet
  facet normal 0.0 0.0 -278.115294937 
    outer loop
      vertex -28.5316954889 9.27050983125 200.0 
      vertex -24.2705098312 17.6335575688 200.0 
      vertex 0.0 0.0 200.0 
    endloop
  endfacet
  facet normal 1672.60954751 -852.237131521 0.0 
    outer loop
      vertex -28.5316954889 9.27050983125 0.0 
      vertex -24.2705098312 17.6335575688 0.0 
      vertex -24.2705098312 17.6335575688 200.0 
    endloop
  endfacet
  facet normal -1672.60954751 852.237131521 0.0 
    outer loop
      vertex -28.5316954889 9.27050983125 0.0 
      vertex -28.5316954889 9.27050983125 200.0 
      vertex -24.2705098312 17.6335575688 200.0 
    endloop
  endfacet
  facet normal 0.0 0.0 -278.115294937 
    outer loop
      vertex -24.2705098312 17.6335575688 0.0 
      vertex -17.6335575688 24.2705098312 0.0 
      vertex 0 0 0 
    endloop
  endfacet
  facet normal 0.0 0.0 -278.115294937 
    outer loop
      vertex -24.2705098312 17.6335575688 200.0 
      vertex -17.6335575688 24.2705098312 200.0 
      vertex 0.0 0.0 200.0 
    endloop
  endfacet
  facet normal 1327.39045249 -1327.39045249 0.0 
    outer loop
      vertex -24.2705098312 17.6335575688 0.0 
      vertex -17.6335575688 24.2705098312 0.0 
      vertex -17.6335575688 24.2705098312 200.0 
    endloop
  endfacet
  facet normal -1327.39045249 1327.39045249 0.0 
    outer loop
      vertex -24.2705098312 17.6335575688 0.0 
      vertex -24.2705098312 17.6335575688 200.0 
      vertex -17.6335575688 24.2705098312 200.0 
    endloop
  endfacet
  facet normal 0.0 0.0 -278.115294937 
    outer loop
      vertex -17.6335575688 24.2705098312 0.0 
      vertex -9.27050983125 28.5316954889 0.0 
      vertex 0 0 0 
    endloop
  endfacet
  facet normal 0.0 0.0 -278.115294937 
    outer loop
      vertex -17.6335575688 24.2705098312 200.0 
      vertex -9.27050983125 28.5316954889 200.0 
      vertex 0.0 0.0 200.0 
    endloop
  endfacet
  facet normal 852.237131521 -1672.60954751 0.0 
    outer loop
      vertex -17.6335575688 24.2705098312 0.0 
      vertex -9.27050983125 28.5316954889 0.0 
      vertex -9.27050983125 28.5316954889 200.0 
    endloop
  endfacet
  facet normal -852.237131521 1672.60954751 0.0 
    outer loop
      vertex -17.6335575688 24.2705098312 0.0 
      vertex -17.6335575688 24.2705098312 200.0 
      vertex -9.27050983125 28.5316954889 200.0 
    endloop
  endfacet
  facet normal 0.0 0.0 -278.115294937 
    outer loop
      vertex -9.27050983125 28.5316954889 0.0 
      vertex -7.34788079488e-15 30.0 0.0 
      vertex 0 0 0 
    endloop
  endfacet
  facet normal 0.0 0.0 -278.115294937 
    outer loop
      vertex -9.27050983125 28.5316954889 200.0 
      vertex -7.34788079488e-15 30.0 200.0 
      vertex 0.0 0.0 200.0 
    endloop
  endfacet
  facet normal 293.660902229 -1854.10196625 0.0 
    outer loop
      vertex -9.27050983125 28.5316954889 0.0 
      vertex -7.34788079488e-15 30.0 0.0 
      vertex -7.34788079488e-15 30.0 200.0 
    endloop
  endfacet
  facet normal -293.660902229 1854.10196625 0.0 
    outer loop
      vertex -9.27050983125 28.5316954889 0.0 
      vertex -9.27050983125 28.5316954889 200.0 
      vertex -7.34788079488e-15 30.0 200.0 
    endloop
  endfacet
endsolid model