solid model
  facet normal 0 0 -400 
    outer loop
      vertex 0 0 0 
      vertex 0 40 0 
      vertex 10 40 0 
    endloop
  endfacet
  facet normal 0 0 -400 
    outer loop
      vertex 0 0 50 
      vertex 0 40 50 
      vertex 10 40 50 
    endloop
  endfacet
  facet normal 0 0 400 
    outer loop
      vertex 0 0 0 
      vertex 10 0 0 
      vertex 10 40 0 
    endloop
  endfacet
  facet normal 0 0 400 
    outer loop
      vertex 0 0 50 
      vertex 10 0 50 
      vertex 10 40 50 
    endloop
  endfacet
  facet normal -2000 0 0 
    outer loop
      vertex 0 0 0 
      vertex 0 0 50 
      vertex 0 40 50 
    endloop
  endfacet
  facet normal -2000 0 0 
    outer loop
      vertex 10 0 0 
      vertex 10 0 50 
      vertex 10 40 50 
    endloop
  endfacet
  facet normal 2000 0 0 
    outer loop
      vertex 0 0 0 
      vertex 0 40 0 
      vertex 0 40 50 
    endloop
  endfacet
  facet normal 2000 0 0 
    outer loop
      vertex 10 0 0 
      vertex 10 40 0 
      vertex 10 40 50 
    endloop
  endfacet
  facet normal 0 -500 0 
    outer loop
      vertex 0 0 0 
      vertex 10 0 0 
      vertex 10 0 50 
    endloop
  endfacet
  facet normal 0 -500 0 
    outer loop
      vertex 0 40 0 
      vertex 10 40 0 
      vertex 10 40 50 
    endloop
  endfacet
  facet normal 0 500 0 
    outer loop
      vertex 0 0 0 
      vertex 0 0 50 
      vertex 10 0 50 
    endloop
  endfacet
  facet normal 0 500 0 
    outer loop
      vertex 0 40 0 
      vertex 0 40 50 
      vertex 10 40 50 
    endloop
  endfacet
endsolid model