solid model
  facet normal 0 0 -42 
    outer loop
      vertex 0 0 0 
      vertex 0 7 0 
      vertex 6 7 0 
    endloop
  endfacet
  facet normal 0 0 -42 
    outer loop
      vertex 0 0 8 
      vertex 0 7 8 
      vertex 6 7 8 
    endloop
  endfacet
  facet normal 0 0 42 
    outer loop
      vertex 0 0 0 
      vertex 6 0 0 
      vertex 6 7 0 
    endloop
  endfacet
  facet normal 0 0 42 
    outer loop
      vertex 0 0 8 
      vertex 6 0 8 
      vertex 6 7 8 
    endloop
  endfacet
  facet normal -56 0 0 
    outer loop
      vertex 0 0 0 
      vertex 0 0 8 
      vertex 0 7 8 
    endloop
  endfacet
  facet normal -56 0 0 
    outer loop
      vertex 6 0 0 
      vertex 6 0 8 
      vertex 6 7 8 
    endloop
  endfacet
  facet normal 56 0 0 
    outer loop
      vertex 0 0 0 
      vertex 0 7 0 
      vertex 0 7 8 
    endloop
  endfacet
  facet normal 56 0 0 
    outer loop
      vertex 6 0 0 
      vertex 6 7 0 
      vertex 6 7 8 
    endloop
  endfacet
  facet normal 0 -48 0 
    outer loop
      vertex 0 0 0 
      vertex 6 0 0 
      vertex 6 0 8 
    endloop
  endfacet
  facet normal 0 -48 0 
    outer loop
      vertex 0 7 0 
      vertex 6 7 0 
      vertex 6 7 8 
    endloop
  endfacet
  facet normal 0 48 0 
    outer loop
      vertex 0 0 0 
      vertex 0 0 8 
      vertex 6 0 8 
    endloop
  endfacet
  facet normal 0 48 0 
    outer loop
      vertex 0 7 0 
      vertex 0 7 8 
      vertex 6 7 8 
=======
  facet normal 0 0 -170 
    outer loop
      vertex 0 0 0 
      vertex 0 5 0 
      vertex 34 5 0 
    endloop
  endfacet
  facet normal 0 0 -170 
    outer loop
      vertex 0 0 6.7 
      vertex 0 5 6.7 
      vertex 34 5 6.7 
    endloop
  endfacet
  facet normal 0 0 170 
    outer loop
      vertex 0 0 0 
      vertex 34 0 0 
      vertex 34 5 0 
    endloop
  endfacet
  facet normal 0 0 170 
    outer loop
      vertex 0 0 6.7 
      vertex 34 0 6.7 
      vertex 34 5 6.7 
    endloop
  endfacet
  facet normal -33.5 0 0 
    outer loop
      vertex 0 0 0 
      vertex 0 0 6.7 
      vertex 0 5 6.7 
    endloop
  endfacet
  facet normal -33.5 0 0 
    outer loop
      vertex 34 0 0 
      vertex 34 0 6.7 
      vertex 34 5 6.7 
    endloop
  endfacet
  facet normal 33.5 0 0 
    outer loop
      vertex 0 0 0 
      vertex 0 5 0 
      vertex 0 5 6.7 
    endloop
  endfacet
  facet normal 33.5 0 0 
    outer loop
      vertex 34 0 0 
      vertex 34 5 0 
      vertex 34 5 6.7 
    endloop
  endfacet
  facet normal 0 -227.8 0 
    outer loop
      vertex 0 0 0 
      vertex 34 0 0 
      vertex 34 0 6.7 
    endloop
  endfacet
  facet normal 0 -227.8 0 
    outer loop
      vertex 0 5 0 
      vertex 34 5 0 
      vertex 34 5 6.7 
    endloop
  endfacet
  facet normal 0 227.8 0 
    outer loop
      vertex 0 0 0 
      vertex 0 0 6.7 
      vertex 34 0 6.7 
    endloop
  endfacet
  facet normal 0 227.8 0 
    outer loop
      vertex 0 5 0 
      vertex 0 5 6.7 
      vertex 34 5 6.7 
    endloop
  endfacet
endsolid model