solid model
  facet normal 0 0 -2 
    outer loop
      vertex 0 0 0 
      vertex 0 2 0 
      vertex 1 2 0 
    endloop
  endfacet
  facet normal 0 0 -2 
    outer loop
      vertex 0 0 3 
      vertex 0 2 3 
      vertex 1 2 3 
    endloop
  endfacet
  facet normal 0 0 2 
    outer loop
      vertex 0 0 0 
      vertex 1 0 0 
      vertex 1 2 0 
    endloop
  endfacet
  facet normal 0 0 2 
    outer loop
      vertex 0 0 3 
      vertex 1 0 3 
      vertex 1 2 3 
    endloop
  endfacet
  facet normal -6 0 0 
    outer loop
      vertex 0 0 0 
      vertex 0 0 3 
      vertex 0 2 3 
    endloop
  endfacet
  facet normal -6 0 0 
    outer loop
      vertex 1 0 0 
      vertex 1 0 3 
      vertex 1 2 3 
    endloop
  endfacet
  facet normal 6 0 0 
    outer loop
      vertex 0 0 0 
      vertex 0 2 0 
      vertex 0 2 3 
    endloop
  endfacet
  facet normal 6 0 0 
    outer loop
      vertex 1 0 0 
      vertex 1 2 0 
      vertex 1 2 3 
    endloop
  endfacet
  facet normal 0 -3 0 
    outer loop
      vertex 0 0 0 
      vertex 1 0 0 
      vertex 1 0 3 
    endloop
  endfacet
  facet normal 0 -3 0 
    outer loop
      vertex 0 2 0 
      vertex 1 2 0 
      vertex 1 2 3 
    endloop
  endfacet
  facet normal 0 3 0 
    outer loop
      vertex 0 0 0 
      vertex 0 0 3 
      vertex 1 0 3 
    endloop
  endfacet
  facet normal 0 3 0 
    outer loop
      vertex 0 2 0 
      vertex 0 2 3 
      vertex 1 2 3 
    endloop
  endfacet
endsolid model