solid model
  facet normal 0 0 -782 
    outer loop
      vertex 0 0 0 
      vertex 0 23 0 
      vertex 34 23 0 
    endloop
  endfacet
  facet normal 0 0 -782 
    outer loop
      vertex 0 0 123.2 
      vertex 0 23 123.2 
      vertex 34 23 123.2 
    endloop
  endfacet
  facet normal 0 0 782 
    outer loop
      vertex 0 0 0 
      vertex 34 0 0 
      vertex 34 23 0 
    endloop
  endfacet
  facet normal 0 0 782 
    outer loop
      vertex 0 0 123.2 
      vertex 34 0 123.2 
      vertex 34 23 123.2 
    endloop
  endfacet
  facet normal -2833.6 0 0 
    outer loop
      vertex 0 0 0 
      vertex 0 0 123.2 
      vertex 0 23 123.2 
    endloop
  endfacet
  facet normal -2833.6 0 0 
    outer loop
      vertex 34 0 0 
      vertex 34 0 123.2 
      vertex 34 23 123.2 
    endloop
  endfacet
  facet normal 2833.6 0 0 
    outer loop
      vertex 0 0 0 
      vertex 0 23 0 
      vertex 0 23 123.2 
    endloop
  endfacet
  facet normal 2833.6 0 0 
    outer loop
      vertex 34 0 0 
      vertex 34 23 0 
      vertex 34 23 123.2 
    endloop
  endfacet
  facet normal 0 -4188.8 0 
    outer loop
      vertex 0 0 0 
      vertex 34 0 0 
      vertex 34 0 123.2 
    endloop
  endfacet
  facet normal 0 -4188.8 0 
    outer loop
      vertex 0 23 0 
      vertex 34 23 0 
      vertex 34 23 123.2 
    endloop
  endfacet
  facet normal 0 4188.8 0 
    outer loop
      vertex 0 0 0 
      vertex 0 0 123.2 
      vertex 34 0 123.2 
    endloop
  endfacet
  facet normal 0 4188.8 0 
    outer loop
      vertex 0 23 0 
      vertex 0 23 123.2 
      vertex 34 23 123.2 
    endloop
  endfacet
endsolid model