solid model
  facet normal 0 0 -170 
    outer loop
      vertex 0 0 0 
      vertex 0 5 0 
      vertex 34 5 0 
    endloop
  endfacet
  facet normal 0 0 -170 
    outer loop
      vertex 0 0 6.7 
      vertex 0 5 6.7 
      vertex 34 5 6.7 
    endloop
  endfacet
  facet normal 0 0 170 
    outer loop
      vertex 0 0 0 
      vertex 34 0 0 
      vertex 34 5 0 
    endloop
  endfacet
  facet normal 0 0 170 
    outer loop
      vertex 0 0 6.7 
      vertex 34 0 6.7 
      vertex 34 5 6.7 
    endloop
  endfacet
  facet normal -33.5 0 0 
    outer loop
      vertex 0 0 0 
      vertex 0 0 6.7 
      vertex 0 5 6.7 
    endloop
  endfacet
  facet normal -33.5 0 0 
    outer loop
      vertex 34 0 0 
      vertex 34 0 6.7 
      vertex 34 5 6.7 
    endloop
  endfacet
  facet normal 33.5 0 0 
    outer loop
      vertex 0 0 0 
      vertex 0 5 0 
      vertex 0 5 6.7 
    endloop
  endfacet
  facet normal 33.5 0 0 
    outer loop
      vertex 34 0 0 
      vertex 34 5 0 
      vertex 34 5 6.7 
    endloop
  endfacet
  facet normal 0 -227.8 0 
    outer loop
      vertex 0 0 0 
      vertex 34 0 0 
      vertex 34 0 6.7 
    endloop
  endfacet
  facet normal 0 -227.8 0 
    outer loop
      vertex 0 5 0 
      vertex 34 5 0 
      vertex 34 5 6.7 
    endloop
  endfacet
  facet normal 0 227.8 0 
    outer loop
      vertex 0 0 0 
      vertex 0 0 6.7 
      vertex 34 0 6.7 
    endloop
  endfacet
  facet normal 0 227.8 0 
    outer loop
      vertex 0 5 0 
      vertex 0 5 6.7 
      vertex 34 5 6.7 
    endloop
  endfacet
endsolid model