solid quader
  facet normal 0 0 -90 
    outer loop
      vertex 0 0 0 
      vertex 0 9 0 
      vertex 10 9 0 
    endloop
  endfacet
  facet normal 0 0 -90 
    outer loop
      vertex 0 0 5 
      vertex 0 9 5 
      vertex 10 9 5 
    endloop
  endfacet
  facet normal 0 0 90 
    outer loop
      vertex 0 0 0 
      vertex 10 0 0 
      vertex 10 9 0 
    endloop
  endfacet
  facet normal 0 0 90 
    outer loop
      vertex 0 0 5 
      vertex 10 0 5 
      vertex 10 9 5 
    endloop
  endfacet
  facet normal -45 0 0 
    outer loop
      vertex 0 0 0 
      vertex 0 0 5 
      vertex 0 9 5 
    endloop
  endfacet
  facet normal -45 0 0 
    outer loop
      vertex 10 0 0 
      vertex 10 0 5 
      vertex 10 9 5 
    endloop
  endfacet
  facet normal 45 0 0 
    outer loop
      vertex 0 0 0 
      vertex 0 9 0 
      vertex 0 9 5 
    endloop
  endfacet
  facet normal 45 0 0 
    outer loop
      vertex 10 0 0 
      vertex 10 9 0 
      vertex 10 9 5 
    endloop
  endfacet
  facet normal 0 -50 0 
    outer loop
      vertex 0 0 0 
      vertex 10 0 0 
      vertex 10 0 5 
    endloop
  endfacet
  facet normal 0 -50 0 
    outer loop
      vertex 0 9 0 
      vertex 10 9 0 
      vertex 10 9 5 
    endloop
  endfacet
  facet normal 0 50 0 
    outer loop
      vertex 0 0 0 
      vertex 0 0 5 
      vertex 10 0 5 
    endloop
  endfacet
  facet normal 0 50 0 
    outer loop
      vertex 0 9 0 
      vertex 0 9 5 
      vertex 10 9 5 
    endloop
  endfacet
endsolid quader