solid test
  facet normal 0 0 -0.6952882373436315 
    outer loop
      vertex 0 1.5 0 
      vertex 0.46352549156242107 1.4265847744427302 0 
      vertex 0 0 0 
    endloop
  endfacet
  facet normal 0 0 -0.6952882373436315 
    outer loop
      vertex 0 1.5 3.2 
      vertex 0.46352549156242107 1.4265847744427302 3.2 
      vertex 0 0 3.2 
    endloop
  endfacet
  facet normal -0.23492872178326324 -1.4832815729997475 0 
    outer loop
      vertex 0 1.5 0 
      vertex 0.46352549156242107 1.4265847744427302 0 
      vertex 0.46352549156242107 1.4265847744427302 3.2 
    endloop
  endfacet
  facet normal 0.23492872178326324 1.4832815729997475 0 
    outer loop
      vertex 0 1.5 0 
      vertex 0 1.5 3.2 
      vertex 0.46352549156242107 1.4265847744427302 3.2 
    endloop
  endfacet
  facet normal 0 0 -0.6952882373436317 
    outer loop
      vertex 0.46352549156242107 1.4265847744427302 0 
      vertex 0.8816778784387097 1.2135254915624212 0 
      vertex 0 0 0 
    endloop
  endfacet
  facet normal 0 0 -0.6952882373436317 
    outer loop
      vertex 0.46352549156242107 1.4265847744427302 3.2 
      vertex 0.8816778784387097 1.2135254915624212 3.2 
      vertex 0 0 3.2 
    endloop
  endfacet
  facet normal -0.681789705216989 -1.3380876380041238 0 
    outer loop
      vertex 0.46352549156242107 1.4265847744427302 0 
      vertex 0.8816778784387097 1.2135254915624212 0 
      vertex 0.8816778784387097 1.2135254915624212 3.2 
    endloop
  endfacet
  facet normal 0.681789705216989 1.3380876380041238 0 
    outer loop
      vertex 0.46352549156242107 1.4265847744427302 0 
      vertex 0.46352549156242107 1.4265847744427302 3.2 
      vertex 0.8816778784387097 1.2135254915624212 3.2 
    endloop
  endfacet
  facet normal 0 0 -0.6952882373436318 
    outer loop
      vertex 0.8816778784387097 1.2135254915624212 0 
      vertex 1.2135254915624212 0.8816778784387097 0 
      vertex 0 0 0 
    endloop
  endfacet
  facet normal 0 0 -0.6952882373436318 
    outer loop
      vertex 0.8816778784387097 1.2135254915624212 3.2 
      vertex 1.2135254915624212 0.8816778784387097 3.2 
      vertex 0 0 3.2 
    endloop
  endfacet
  facet normal -1.0619123619958768 -1.0619123619958768 0 
    outer loop
      vertex 0.8816778784387097 1.2135254915624212 0 
      vertex 1.2135254915624212 0.8816778784387097 0 
      vertex 1.2135254915624212 0.8816778784387097 3.2 
    endloop
  endfacet
  facet normal 1.0619123619958768 1.0619123619958768 0 
    outer loop
      vertex 0.8816778784387097 1.2135254915624212 0 
      vertex 0.8816778784387097 1.2135254915624212 3.2 
      vertex 1.2135254915624212 0.8816778784387097 3.2 
    endloop
  endfacet
  facet normal 0 0 -0.6952882373436315 
    outer loop
      vertex 1.2135254915624212 0.8816778784387097 0 
      vertex 1.4265847744427302 0.4635254915624212 0 
      vertex 0 0 0 
    endloop
  endfacet
  facet normal 0 0 -0.6952882373436315 
    outer loop
      vertex 1.2135254915624212 0.8816778784387097 3.2 
      vertex 1.4265847744427302 0.4635254915624212 3.2 
      vertex 0 0 3.2 
    endloop
  endfacet
  facet normal -1.3380876380041233 -0.681789705216989 0 
    outer loop
      vertex 1.2135254915624212 0.8816778784387097 0 
      vertex 1.4265847744427302 0.4635254915624212 0 
      vertex 1.4265847744427302 0.4635254915624212 3.2 
    endloop
  endfacet
  facet normal 1.3380876380041233 0.681789705216989 0 
    outer loop
      vertex 1.2135254915624212 0.8816778784387097 0 
      vertex 1.2135254915624212 0.8816778784387097 3.2 
      vertex 1.4265847744427302 0.4635254915624212 3.2 
    endloop
  endfacet
  facet normal 0 0 -0.6952882373436315 
    outer loop
      vertex 1.4265847744427302 0.4635254915624212 0 
      vertex 1.5 9.184850993605148e-17 0 
      vertex 0 0 0 
    endloop
  endfacet
  facet normal 0 0 -0.6952882373436315 
    outer loop
      vertex 1.4265847744427302 0.4635254915624212 3.2 
      vertex 1.5 9.184850993605148e-17 3.2 
      vertex 0 0 3.2 
    endloop
  endfacet
  facet normal -1.4832815729997475 -0.23492872178326324 0 
    outer loop
      vertex 1.4265847744427302 0.4635254915624212 0 
      vertex 1.5 9.184850993605148e-17 0 
      vertex 1.5 9.184850993605148e-17 3.2 
    endloop
  endfacet
  facet normal 1.4832815729997475 0.23492872178326324 0 
    outer loop
      vertex 1.4265847744427302 0.4635254915624212 0 
      vertex 1.4265847744427302 0.4635254915624212 3.2 
      vertex 1.5 9.184850993605148e-17 3.2 
    endloop
  endfacet
  facet normal 0 0 -0.6952882373436317 
    outer loop
      vertex 1.5 9.184850993605148e-17 0 
      vertex 1.4265847744427305 -0.463525491562421 0 
      vertex 0 0 0 
    endloop
  endfacet
  facet normal 0 0 -0.6952882373436317 
    outer loop
      vertex 1.5 9.184850993605148e-17 3.2 
      vertex 1.4265847744427305 -0.463525491562421 3.2 
      vertex 0 0 3.2 
    endloop
  endfacet
  facet normal -1.4832815729997477 0.23492872178326252 0 
    outer loop
      vertex 1.5 9.184850993605148e-17 0 
      vertex 1.4265847744427305 -0.463525491562421 0 
      vertex 1.4265847744427305 -0.463525491562421 3.2 
    endloop
  endfacet
  facet normal 1.4832815729997477 -0.23492872178326252 0 
    outer loop
      vertex 1.5 9.184850993605148e-17 0 
      vertex 1.5 9.184850993605148e-17 3.2 
      vertex 1.4265847744427305 -0.463525491562421 3.2 
    endloop
  endfacet
  facet normal 0 0 -0.6952882373436319 
    outer loop
      vertex 1.4265847744427305 -0.463525491562421 0 
      vertex 1.2135254915624212 -0.8816778784387096 0 
      vertex 0 0 0 
    endloop
  endfacet
  facet normal 0 0 -0.6952882373436319 
    outer loop
      vertex 1.4265847744427305 -0.463525491562421 3.2 
      vertex 1.2135254915624212 -0.8816778784387096 3.2 
      vertex 0 0 3.2 
    endloop
  endfacet
  facet normal -1.3380876380041236 0.6817897052169898 0 
    outer loop
      vertex 1.4265847744427305 -0.463525491562421 0 
      vertex 1.2135254915624212 -0.8816778784387096 0 
      vertex 1.2135254915624212 -0.8816778784387096 3.2 
    endloop
  endfacet
  facet normal 1.3380876380041236 -0.6817897052169898 0 
    outer loop
      vertex 1.4265847744427305 -0.463525491562421 0 
      vertex 1.4265847744427305 -0.463525491562421 3.2 
      vertex 1.2135254915624212 -0.8816778784387096 3.2 
    endloop
  endfacet
  facet normal 0 0 -0.6952882373436315 
    outer loop
      vertex 1.2135254915624212 -0.8816778784387096 0 
      vertex 0.8816778784387098 -1.213525491562421 0 
      vertex 0 0 0 
    endloop
  endfacet
  facet normal 0 0 -0.6952882373436315 
    outer loop
      vertex 1.2135254915624212 -0.8816778784387096 3.2 
      vertex 0.8816778784387098 -1.213525491562421 3.2 
      vertex 0 0 3.2 
    endloop
  endfacet
  facet normal -1.0619123619958764 1.0619123619958764 0 
    outer loop
      vertex 1.2135254915624212 -0.8816778784387096 0 
      vertex 0.8816778784387098 -1.213525491562421 0 
      vertex 0.8816778784387098 -1.213525491562421 3.2 
    endloop
  endfacet
  facet normal 1.0619123619958764 -1.0619123619958764 0 
    outer loop
      vertex 1.2135254915624212 -0.8816778784387096 0 
      vertex 1.2135254915624212 -0.8816778784387096 3.2 
      vertex 0.8816778784387098 -1.213525491562421 3.2 
    endloop
  endfacet
  facet normal 0 0 -0.6952882373436317 
    outer loop
      vertex 0.8816778784387098 -1.213525491562421 0 
      vertex 0.4635254915624213 -1.4265847744427302 0 
      vertex 0 0 0 
    endloop
  endfacet
  facet normal 0 0 -0.6952882373436317 
    outer loop
      vertex 0.8816778784387098 -1.213525491562421 3.2 
      vertex 0.4635254915624213 -1.4265847744427302 3.2 
      vertex 0 0 3.2 
    endloop
  endfacet
  facet normal -0.6817897052169898 1.3380876380041233 0 
    outer loop
      vertex 0.8816778784387098 -1.213525491562421 0 
      vertex 0.4635254915624213 -1.4265847744427302 0 
      vertex 0.4635254915624213 -1.4265847744427302 3.2 
    endloop
  endfacet
  facet normal 0.6817897052169898 -1.3380876380041233 0 
    outer loop
      vertex 0.8816778784387098 -1.213525491562421 0 
      vertex 0.8816778784387098 -1.213525491562421 3.2 
      vertex 0.4635254915624213 -1.4265847744427302 3.2 
    endloop
  endfacet
  facet normal 0 0 -0.6952882373436317 
    outer loop
      vertex 0.4635254915624213 -1.4265847744427302 0 
      vertex 1.8369701987210297e-16 -1.5 0 
      vertex 0 0 0 
    endloop
  endfacet
  facet normal 0 0 -0.6952882373436317 
    outer loop
      vertex 0.4635254915624213 -1.4265847744427302 3.2 
      vertex 1.8369701987210297e-16 -1.5 3.2 
      vertex 0 0 3.2 
    endloop
  endfacet
  facet normal -0.23492872178326324 1.4832815729997477 0 
    outer loop
      vertex 0.4635254915624213 -1.4265847744427302 0 
      vertex 1.8369701987210297e-16 -1.5 0 
      vertex 1.8369701987210297e-16 -1.5 3.2 
    endloop
  endfacet
  facet normal 0.23492872178326324 -1.4832815729997477 0 
    outer loop
      vertex 0.4635254915624213 -1.4265847744427302 0 
      vertex 0.4635254915624213 -1.4265847744427302 3.2 
      vertex 1.8369701987210297e-16 -1.5 3.2 
    endloop
  endfacet
  facet normal 0 0 -0.6952882373436327 
    outer loop
      vertex 1.8369701987210297e-16 -1.5 0 
      vertex -0.4635254915624216 -1.4265847744427302 0 
      vertex 0 0 0 
    endloop
  endfacet
  facet normal 0 0 -0.6952882373436327 
    outer loop
      vertex 1.8369701987210297e-16 -1.5 3.2 
      vertex -0.4635254915624216 -1.4265847744427302 3.2 
      vertex 0 0 3.2 
    endloop
  endfacet
  facet normal 0.23492872178326324 1.4832815729997497 0 
    outer loop
      vertex 1.8369701987210297e-16 -1.5 0 
      vertex -0.4635254915624216 -1.4265847744427302 0 
      vertex -0.4635254915624216 -1.4265847744427302 3.2 
    endloop
  endfacet
  facet normal -0.23492872178326324 -1.4832815729997497 0 
    outer loop
      vertex 1.8369701987210297e-16 -1.5 0 
      vertex 1.8369701987210297e-16 -1.5 3.2 
      vertex -0.4635254915624216 -1.4265847744427302 3.2 
    endloop
  endfacet
  facet normal 0 0 -0.6952882373436309 
    outer loop
      vertex -0.4635254915624216 -1.4265847744427302 0 
      vertex -0.8816778784387096 -1.2135254915624212 0 
      vertex 0 0 0 
    endloop
  endfacet
  facet normal 0 0 -0.6952882373436309 
    outer loop
      vertex -0.4635254915624216 -1.4265847744427302 3.2 
      vertex -0.8816778784387096 -1.2135254915624212 3.2 
      vertex 0 0 3.2 
    endloop
  endfacet
  facet normal 0.681789705216989 1.3380876380041216 0 
    outer loop
      vertex -0.4635254915624216 -1.4265847744427302 0 
      vertex -0.8816778784387096 -1.2135254915624212 0 
      vertex -0.8816778784387096 -1.2135254915624212 3.2 
    endloop
  endfacet
  facet normal -0.681789705216989 -1.3380876380041216 0 
    outer loop
      vertex -0.4635254915624216 -1.4265847744427302 0 
      vertex -0.4635254915624216 -1.4265847744427302 3.2 
      vertex -0.8816778784387096 -1.2135254915624212 3.2 
    endloop
  endfacet
  facet normal 0 0 -0.6952882373436315 
    outer loop
      vertex -0.8816778784387096 -1.2135254915624212 0 
      vertex -1.213525491562421 -0.8816778784387098 0 
      vertex 0 0 0 
    endloop
  endfacet
  facet normal 0 0 -0.6952882373436315 
    outer loop
      vertex -0.8816778784387096 -1.2135254915624212 3.2 
      vertex -1.213525491562421 -0.8816778784387098 3.2 
      vertex 0 0 3.2 
    endloop
  endfacet
  facet normal 1.0619123619958764 1.0619123619958764 0 
    outer loop
      vertex -0.8816778784387096 -1.2135254915624212 0 
      vertex -1.213525491562421 -0.8816778784387098 0 
      vertex -1.213525491562421 -0.8816778784387098 3.2 
    endloop
  endfacet
  facet normal -1.0619123619958764 -1.0619123619958764 0 
    outer loop
      vertex -0.8816778784387096 -1.2135254915624212 0 
      vertex -0.8816778784387096 -1.2135254915624212 3.2 
      vertex -1.213525491562421 -0.8816778784387098 3.2 
    endloop
  endfacet
  facet normal 0 0 -0.6952882373436317 
    outer loop
      vertex -1.213525491562421 -0.8816778784387098 0 
      vertex -1.4265847744427302 -0.46352549156242134 0 
      vertex 0 0 0 
    endloop
  endfacet
  facet normal 0 0 -0.6952882373436317 
    outer loop
      vertex -1.213525491562421 -0.8816778784387098 3.2 
      vertex -1.4265847744427302 -0.46352549156242134 3.2 
      vertex 0 0 3.2 
    endloop
  endfacet
  facet normal 1.3380876380041231 0.6817897052169898 0 
    outer loop
      vertex -1.213525491562421 -0.8816778784387098 0 
      vertex -1.4265847744427302 -0.46352549156242134 0 
      vertex -1.4265847744427302 -0.46352549156242134 3.2 
    endloop
  endfacet
  facet normal -1.3380876380041231 -0.6817897052169898 0 
    outer loop
      vertex -1.213525491562421 -0.8816778784387098 0 
      vertex -1.213525491562421 -0.8816778784387098 3.2 
      vertex -1.4265847744427302 -0.46352549156242134 3.2 
    endloop
  endfacet
  facet normal 0 0 -0.6952882373436315 
    outer loop
      vertex -1.4265847744427302 -0.46352549156242134 0 
      vertex -1.5 -2.755455298081545e-16 0 
      vertex 0 0 0 
    endloop
  endfacet
  facet normal 0 0 -0.6952882373436315 
    outer loop
      vertex -1.4265847744427302 -0.46352549156242134 3.2 
      vertex -1.5 -2.755455298081545e-16 3.2 
      vertex 0 0 3.2 
    endloop
  endfacet
  facet normal 1.4832815729997475 0.23492872178326324 0 
    outer loop
      vertex -1.4265847744427302 -0.46352549156242134 0 
      vertex -1.5 -2.755455298081545e-16 0 
      vertex -1.5 -2.755455298081545e-16 3.2 
    endloop
  endfacet
  facet normal -1.4832815729997475 -0.23492872178326324 0 
    outer loop
      vertex -1.4265847744427302 -0.46352549156242134 0 
      vertex -1.4265847744427302 -0.46352549156242134 3.2 
      vertex -1.5 -2.755455298081545e-16 3.2 
    endloop
  endfacet
  facet normal 0 0 -0.6952882373436317 
    outer loop
      vertex -1.5 -2.755455298081545e-16 0 
      vertex -1.4265847744427305 0.46352549156242084 0 
      vertex 0 0 0 
    endloop
  endfacet
  facet normal 0 0 -0.6952882373436317 
    outer loop
      vertex -1.5 -2.755455298081545e-16 3.2 
      vertex -1.4265847744427305 0.46352549156242084 3.2 
      vertex 0 0 3.2 
    endloop
  endfacet
  facet normal 1.4832815729997477 -0.23492872178326252 0 
    outer loop
      vertex -1.5 -2.755455298081545e-16 0 
      vertex -1.4265847744427305 0.46352549156242084 0 
      vertex -1.4265847744427305 0.46352549156242084 3.2 
    endloop
  endfacet
  facet normal -1.4832815729997477 0.23492872178326252 0 
    outer loop
      vertex -1.5 -2.755455298081545e-16 0 
      vertex -1.5 -2.755455298081545e-16 3.2 
      vertex -1.4265847744427305 0.46352549156242084 3.2 
    endloop
  endfacet
  facet normal 0 0 -0.6952882373436315 
    outer loop
      vertex -1.4265847744427305 0.46352549156242084 0 
      vertex -1.2135254915624214 0.8816778784387094 0 
      vertex 0 0 0 
    endloop
  endfacet
  facet normal 0 0 -0.6952882373436315 
    outer loop
      vertex -1.4265847744427305 0.46352549156242084 3.2 
      vertex -1.2135254915624214 0.8816778784387094 3.2 
      vertex 0 0 3.2 
    endloop
  endfacet
  facet normal 1.3380876380041233 -0.681789705216989 0 
    outer loop
      vertex -1.4265847744427305 0.46352549156242084 0 
      vertex -1.2135254915624214 0.8816778784387094 0 
      vertex -1.2135254915624214 0.8816778784387094 3.2 
    endloop
  endfacet
  facet normal -1.3380876380041233 0.681789705216989 0 
    outer loop
      vertex -1.4265847744427305 0.46352549156242084 0 
      vertex -1.4265847744427305 0.46352549156242084 3.2 
      vertex -1.2135254915624214 0.8816778784387094 3.2 
    endloop
  endfacet
  facet normal 0 0 -0.6952882373436318 
    outer loop
      vertex -1.2135254915624214 0.8816778784387094 0 
      vertex -0.88167787843871 1.213525491562421 0 
      vertex 0 0 0 
    endloop
  endfacet
  facet normal 0 0 -0.6952882373436318 
    outer loop
      vertex -1.2135254915624214 0.8816778784387094 3.2 
      vertex -0.88167787843871 1.213525491562421 3.2 
      vertex 0 0 3.2 
    endloop
  endfacet
  facet normal 1.061912361995877 -1.0619123619958764 0 
    outer loop
      vertex -1.2135254915624214 0.8816778784387094 0 
      vertex -0.88167787843871 1.213525491562421 0 
      vertex -0.88167787843871 1.213525491562421 3.2 
    endloop
  endfacet
  facet normal -1.061912361995877 1.0619123619958764 0 
    outer loop
      vertex -1.2135254915624214 0.8816778784387094 0 
      vertex -1.2135254915624214 0.8816778784387094 3.2 
      vertex -0.88167787843871 1.213525491562421 3.2 
    endloop
  endfacet
  facet normal 0 0 -0.6952882373436317 
    outer loop
      vertex -0.88167787843871 1.213525491562421 0 
      vertex -0.4635254915624215 1.4265847744427302 0 
      vertex 0 0 0 
    endloop
  endfacet
  facet normal 0 0 -0.6952882373436317 
    outer loop
      vertex -0.88167787843871 1.213525491562421 3.2 
      vertex -0.4635254915624215 1.4265847744427302 3.2 
      vertex 0 0 3.2 
    endloop
  endfacet
  facet normal 0.6817897052169898 -1.3380876380041233 0 
    outer loop
      vertex -0.88167787843871 1.213525491562421 0 
      vertex -0.4635254915624215 1.4265847744427302 0 
      vertex -0.4635254915624215 1.4265847744427302 3.2 
    endloop
  endfacet
  facet normal -0.6817897052169898 1.3380876380041233 0 
    outer loop
      vertex -0.88167787843871 1.213525491562421 0 
      vertex -0.88167787843871 1.213525491562421 3.2 
      vertex -0.4635254915624215 1.4265847744427302 3.2 
    endloop
  endfacet
  facet normal 0 0 -0.6952882373436318 
    outer loop
      vertex -0.4635254915624215 1.4265847744427302 0 
      vertex -3.6739403974420594e-16 1.5 0 
      vertex 0 0 0 
    endloop
  endfacet
  facet normal 0 0 -0.6952882373436318 
    outer loop
      vertex -0.4635254915624215 1.4265847744427302 3.2 
      vertex -3.6739403974420594e-16 1.5 3.2 
      vertex 0 0 3.2 
    endloop
  endfacet
  facet normal 0.23492872178326324 -1.4832815729997477 0 
    outer loop
      vertex -0.4635254915624215 1.4265847744427302 0 
      vertex -3.6739403974420594e-16 1.5 0 
      vertex -3.6739403974420594e-16 1.5 3.2 
    endloop
  endfacet
  facet normal -0.23492872178326324 1.4832815729997477 0 
    outer loop
      vertex -0.4635254915624215 1.4265847744427302 0 
      vertex -0.4635254915624215 1.4265847744427302 3.2 
      vertex -3.6739403974420594e-16 1.5 3.2 
    endloop
  endfacet
endsolid test