solid test
  facet normal 0 0 -2.781152949374526 
    outer loop
      vertex 0 3 0 
      vertex 0.9270509831248421 2.8531695488854605 0 
      vertex 0 0 0 
    endloop
  endfacet
  facet normal 0 0 -2.781152949374526 
    outer loop
      vertex 0 3 3 
      vertex 0.9270509831248421 2.8531695488854605 3 
      vertex 0 0 3 
    endloop
  endfacet
  facet normal -0.44049135334361855 -2.781152949374526 0 
    outer loop
      vertex 0 3 0 
      vertex 0.9270509831248421 2.8531695488854605 0 
      vertex 0.9270509831248421 2.8531695488854605 3 
    endloop
  endfacet
  facet normal 0.44049135334361855 2.781152949374526 0 
    outer loop
      vertex 0 3 0 
      vertex 0 3 3 
      vertex 0.9270509831248421 2.8531695488854605 3 
    endloop
  endfacet
  facet normal 0 0 -2.7811529493745266 
    outer loop
      vertex 0.9270509831248421 2.8531695488854605 0 
      vertex 1.7633557568774194 2.4270509831248424 0 
      vertex 0 0 0 
    endloop
  endfacet
  facet normal 0 0 -2.7811529493745266 
    outer loop
      vertex 0.9270509831248421 2.8531695488854605 3 
      vertex 1.7633557568774194 2.4270509831248424 3 
      vertex 0 0 3 
    endloop
  endfacet
  facet normal -1.2783556972818544 -2.508914321257732 0 
    outer loop
      vertex 0.9270509831248421 2.8531695488854605 0 
      vertex 1.7633557568774194 2.4270509831248424 0 
      vertex 1.7633557568774194 2.4270509831248424 3 
    endloop
  endfacet
  facet normal 1.2783556972818544 2.508914321257732 0 
    outer loop
      vertex 0.9270509831248421 2.8531695488854605 0 
      vertex 0.9270509831248421 2.8531695488854605 3 
      vertex 1.7633557568774194 2.4270509831248424 3 
    endloop
  endfacet
  facet normal 0 0 -2.781152949374527 
    outer loop
      vertex 1.7633557568774194 2.4270509831248424 0 
      vertex 2.4270509831248424 1.7633557568774194 0 
      vertex 0 0 0 
    endloop
  endfacet
  facet normal 0 0 -2.781152949374527 
    outer loop
      vertex 1.7633557568774194 2.4270509831248424 3 
      vertex 2.4270509831248424 1.7633557568774194 3 
      vertex 0 0 3 
    endloop
  endfacet
  facet normal -1.9910856787422688 -1.9910856787422688 0 
    outer loop
      vertex 1.7633557568774194 2.4270509831248424 0 
      vertex 2.4270509831248424 1.7633557568774194 0 
      vertex 2.4270509831248424 1.7633557568774194 3 
    endloop
  endfacet
  facet normal 1.9910856787422688 1.9910856787422688 0 
    outer loop
      vertex 1.7633557568774194 2.4270509831248424 0 
      vertex 1.7633557568774194 2.4270509831248424 3 
      vertex 2.4270509831248424 1.7633557568774194 3 
    endloop
  endfacet
  facet normal 0 0 -2.781152949374526 
    outer loop
      vertex 2.4270509831248424 1.7633557568774194 0 
      vertex 2.8531695488854605 0.9270509831248424 0 
      vertex 0 0 0 
    endloop
  endfacet
  facet normal 0 0 -2.781152949374526 
    outer loop
      vertex 2.4270509831248424 1.7633557568774194 3 
      vertex 2.8531695488854605 0.9270509831248424 3 
      vertex 0 0 3 
    endloop
  endfacet
  facet normal -2.5089143212577314 -1.2783556972818544 0 
    outer loop
      vertex 2.4270509831248424 1.7633557568774194 0 
      vertex 2.8531695488854605 0.9270509831248424 0 
      vertex 2.8531695488854605 0.9270509831248424 3 
    endloop
  endfacet
  facet normal 2.5089143212577314 1.2783556972818544 0 
    outer loop
      vertex 2.4270509831248424 1.7633557568774194 0 
      vertex 2.4270509831248424 1.7633557568774194 3 
      vertex 2.8531695488854605 0.9270509831248424 3 
    endloop
  endfacet
  facet normal 0 0 -2.781152949374526 
    outer loop
      vertex 2.8531695488854605 0.9270509831248424 0 
      vertex 3 1.8369701987210297e-16 0 
      vertex 0 0 0 
    endloop
  endfacet
  facet normal 0 0 -2.781152949374526 
    outer loop
      vertex 2.8531695488854605 0.9270509831248424 3 
      vertex 3 1.8369701987210297e-16 3 
      vertex 0 0 3 
    endloop
  endfacet
  facet normal -2.781152949374526 -0.44049135334361855 0 
    outer loop
      vertex 2.8531695488854605 0.9270509831248424 0 
      vertex 3 1.8369701987210297e-16 0 
      vertex 3 1.8369701987210297e-16 3 
    endloop
  endfacet
  facet normal 2.781152949374526 0.44049135334361855 0 
    outer loop
      vertex 2.8531695488854605 0.9270509831248424 0 
      vertex 2.8531695488854605 0.9270509831248424 3 
      vertex 3 1.8369701987210297e-16 3 
    endloop
  endfacet
  facet normal 0 0 -2.7811529493745266 
    outer loop
      vertex 3 1.8369701987210297e-16 0 
      vertex 2.853169548885461 -0.927050983124842 0 
      vertex 0 0 0 
    endloop
  endfacet
  facet normal 0 0 -2.7811529493745266 
    outer loop
      vertex 3 1.8369701987210297e-16 3 
      vertex 2.853169548885461 -0.927050983124842 3 
      vertex 0 0 3 
    endloop
  endfacet
  facet normal -2.7811529493745266 0.4404913533436172 0 
    outer loop
      vertex 3 1.8369701987210297e-16 0 
      vertex 2.853169548885461 -0.927050983124842 0 
      vertex 2.853169548885461 -0.927050983124842 3 
    endloop
  endfacet
  facet normal 2.7811529493745266 -0.4404913533436172 0 
    outer loop
      vertex 3 1.8369701987210297e-16 0 
      vertex 3 1.8369701987210297e-16 3 
      vertex 2.853169548885461 -0.927050983124842 3 
    endloop
  endfacet
  facet normal 0 0 -2.7811529493745275 
    outer loop
      vertex 2.853169548885461 -0.927050983124842 0 
      vertex 2.4270509831248424 -1.7633557568774192 0 
      vertex 0 0 0 
    endloop
  endfacet
  facet normal 0 0 -2.7811529493745275 
    outer loop
      vertex 2.853169548885461 -0.927050983124842 3 
      vertex 2.4270509831248424 -1.7633557568774192 3 
      vertex 0 0 3 
    endloop
  endfacet
  facet normal -2.5089143212577314 1.2783556972818557 0 
    outer loop
      vertex 2.853169548885461 -0.927050983124842 0 
      vertex 2.4270509831248424 -1.7633557568774192 0 
      vertex 2.4270509831248424 -1.7633557568774192 3 
    endloop
  endfacet
  facet normal 2.5089143212577314 -1.2783556972818557 0 
    outer loop
      vertex 2.853169548885461 -0.927050983124842 0 
      vertex 2.853169548885461 -0.927050983124842 3 
      vertex 2.4270509831248424 -1.7633557568774192 3 
    endloop
  endfacet
  facet normal 0 0 -2.781152949374526 
    outer loop
      vertex 2.4270509831248424 -1.7633557568774192 0 
      vertex 1.7633557568774196 -2.427050983124842 0 
      vertex 0 0 0 
    endloop
  endfacet
  facet normal 0 0 -2.781152949374526 
    outer loop
      vertex 2.4270509831248424 -1.7633557568774192 3 
      vertex 1.7633557568774196 -2.427050983124842 3 
      vertex 0 0 3 
    endloop
  endfacet
  facet normal -1.9910856787422682 1.9910856787422682 0 
    outer loop
      vertex 2.4270509831248424 -1.7633557568774192 0 
      vertex 1.7633557568774196 -2.427050983124842 0 
      vertex 1.7633557568774196 -2.427050983124842 3 
    endloop
  endfacet
  facet normal 1.9910856787422682 -1.9910856787422682 0 
    outer loop
      vertex 2.4270509831248424 -1.7633557568774192 0 
      vertex 2.4270509831248424 -1.7633557568774192 3 
      vertex 1.7633557568774196 -2.427050983124842 3 
    endloop
  endfacet
  facet normal 0 0 -2.7811529493745266 
    outer loop
      vertex 1.7633557568774196 -2.427050983124842 0 
      vertex 0.9270509831248426 -2.8531695488854605 0 
      vertex 0 0 0 
    endloop
  endfacet
  facet normal 0 0 -2.7811529493745266 
    outer loop
      vertex 1.7633557568774196 -2.427050983124842 3 
      vertex 0.9270509831248426 -2.8531695488854605 3 
      vertex 0 0 3 
    endloop
  endfacet
  facet normal -1.2783556972818557 2.5089143212577314 0 
    outer loop
      vertex 1.7633557568774196 -2.427050983124842 0 
      vertex 0.9270509831248426 -2.8531695488854605 0 
      vertex 0.9270509831248426 -2.8531695488854605 3 
    endloop
  endfacet
  facet normal 1.2783556972818557 -2.5089143212577314 0 
    outer loop
      vertex 1.7633557568774196 -2.427050983124842 0 
      vertex 1.7633557568774196 -2.427050983124842 3 
      vertex 0.9270509831248426 -2.8531695488854605 3 
    endloop
  endfacet
  facet normal 0 0 -2.7811529493745266 
    outer loop
      vertex 0.9270509831248426 -2.8531695488854605 0 
      vertex 3.6739403974420594e-16 -3 0 
      vertex 0 0 0 
    endloop
  endfacet
  facet normal 0 0 -2.7811529493745266 
    outer loop
      vertex 0.9270509831248426 -2.8531695488854605 3 
      vertex 3.6739403974420594e-16 -3 3 
      vertex 0 0 3 
    endloop
  endfacet
  facet normal -0.44049135334361855 2.7811529493745266 0 
    outer loop
      vertex 0.9270509831248426 -2.8531695488854605 0 
      vertex 3.6739403974420594e-16 -3 0 
      vertex 3.6739403974420594e-16 -3 3 
    endloop
  endfacet
  facet normal 0.44049135334361855 -2.7811529493745266 0 
    outer loop
      vertex 0.9270509831248426 -2.8531695488854605 0 
      vertex 0.9270509831248426 -2.8531695488854605 3 
      vertex 3.6739403974420594e-16 -3 3 
    endloop
  endfacet
  facet normal 0 0 -2.7811529493745306 
    outer loop
      vertex 3.6739403974420594e-16 -3 0 
      vertex -0.9270509831248432 -2.8531695488854605 0 
      vertex 0 0 0 
    endloop
  endfacet
  facet normal 0 0 -2.7811529493745306 
    outer loop
      vertex 3.6739403974420594e-16 -3 3 
      vertex -0.9270509831248432 -2.8531695488854605 3 
      vertex 0 0 3 
    endloop
  endfacet
  facet normal 0.44049135334361855 2.7811529493745306 0 
    outer loop
      vertex 3.6739403974420594e-16 -3 0 
      vertex -0.9270509831248432 -2.8531695488854605 0 
      vertex -0.9270509831248432 -2.8531695488854605 3 
    endloop
  endfacet
  facet normal -0.44049135334361855 -2.7811529493745306 0 
    outer loop
      vertex 3.6739403974420594e-16 -3 0 
      vertex 3.6739403974420594e-16 -3 3 
      vertex -0.9270509831248432 -2.8531695488854605 3 
    endloop
  endfacet
  facet normal 0 0 -2.7811529493745235 
    outer loop
      vertex -0.9270509831248432 -2.8531695488854605 0 
      vertex -1.7633557568774192 -2.4270509831248424 0 
      vertex 0 0 0 
    endloop
  endfacet
  facet normal 0 0 -2.7811529493745235 
    outer loop
      vertex -0.9270509831248432 -2.8531695488854605 3 
      vertex -1.7633557568774192 -2.4270509831248424 3 
      vertex 0 0 3 
    endloop
  endfacet
  facet normal 1.2783556972818544 2.508914321257728 0 
    outer loop
      vertex -0.9270509831248432 -2.8531695488854605 0 
      vertex -1.7633557568774192 -2.4270509831248424 0 
      vertex -1.7633557568774192 -2.4270509831248424 3 
    endloop
  endfacet
  facet normal -1.2783556972818544 -2.508914321257728 0 
    outer loop
      vertex -0.9270509831248432 -2.8531695488854605 0 
      vertex -0.9270509831248432 -2.8531695488854605 3 
      vertex -1.7633557568774192 -2.4270509831248424 3 
    endloop
  endfacet
  facet normal 0 0 -2.781152949374526 
    outer loop
      vertex -1.7633557568774192 -2.4270509831248424 0 
      vertex -2.427050983124842 -1.7633557568774196 0 
      vertex 0 0 0 
    endloop
  endfacet
  facet normal 0 0 -2.781152949374526 
    outer loop
      vertex -1.7633557568774192 -2.4270509831248424 3 
      vertex -2.427050983124842 -1.7633557568774196 3 
      vertex 0 0 3 
    endloop
  endfacet
  facet normal 1.9910856787422682 1.9910856787422682 0 
    outer loop
      vertex -1.7633557568774192 -2.4270509831248424 0 
      vertex -2.427050983124842 -1.7633557568774196 0 
      vertex -2.427050983124842 -1.7633557568774196 3 
    endloop
  endfacet
  facet normal -1.9910856787422682 -1.9910856787422682 0 
    outer loop
      vertex -1.7633557568774192 -2.4270509831248424 0 
      vertex -1.7633557568774192 -2.4270509831248424 3 
      vertex -2.427050983124842 -1.7633557568774196 3 
    endloop
  endfacet
  facet normal 0 0 -2.7811529493745266 
    outer loop
      vertex -2.427050983124842 -1.7633557568774196 0 
      vertex -2.8531695488854605 -0.9270509831248427 0 
      vertex 0 0 0 
    endloop
  endfacet
  facet normal 0 0 -2.7811529493745266 
    outer loop
      vertex -2.427050983124842 -1.7633557568774196 3 
      vertex -2.8531695488854605 -0.9270509831248427 3 
      vertex 0 0 3 
    endloop
  endfacet
  facet normal 2.508914321257731 1.2783556972818557 0 
    outer loop
      vertex -2.427050983124842 -1.7633557568774196 0 
      vertex -2.8531695488854605 -0.9270509831248427 0 
      vertex -2.8531695488854605 -0.9270509831248427 3 
    endloop
  endfacet
  facet normal -2.508914321257731 -1.2783556972818557 0 
    outer loop
      vertex -2.427050983124842 -1.7633557568774196 0 
      vertex -2.427050983124842 -1.7633557568774196 3 
      vertex -2.8531695488854605 -0.9270509831248427 3 
    endloop
  endfacet
  facet normal 0 0 -2.781152949374526 
    outer loop
      vertex -2.8531695488854605 -0.9270509831248427 0 
      vertex -3 -5.51091059616309e-16 0 
      vertex 0 0 0 
    endloop
  endfacet
  facet normal 0 0 -2.781152949374526 
    outer loop
      vertex -2.8531695488854605 -0.9270509831248427 3 
      vertex -3 -5.51091059616309e-16 3 
      vertex 0 0 3 
    endloop
  endfacet
  facet normal 2.781152949374526 0.44049135334361855 0 
    outer loop
      vertex -2.8531695488854605 -0.9270509831248427 0 
      vertex -3 -5.51091059616309e-16 0 
      vertex -3 -5.51091059616309e-16 3 
    endloop
  endfacet
  facet normal -2.781152949374526 -0.44049135334361855 0 
    outer loop
      vertex -2.8531695488854605 -0.9270509831248427 0 
      vertex -2.8531695488854605 -0.9270509831248427 3 
      vertex -3 -5.51091059616309e-16 3 
    endloop
  endfacet
  facet normal 0 0 -2.7811529493745266 
    outer loop
      vertex -3 -5.51091059616309e-16 0 
      vertex -2.853169548885461 0.9270509831248417 0 
      vertex 0 0 0 
    endloop
  endfacet
  facet normal 0 0 -2.7811529493745266 
    outer loop
      vertex -3 -5.51091059616309e-16 3 
      vertex -2.853169548885461 0.9270509831248417 3 
      vertex 0 0 3 
    endloop
  endfacet
  facet normal 2.7811529493745266 -0.4404913533436172 0 
    outer loop
      vertex -3 -5.51091059616309e-16 0 
      vertex -2.853169548885461 0.9270509831248417 0 
      vertex -2.853169548885461 0.9270509831248417 3 
    endloop
  endfacet
  facet normal -2.7811529493745266 0.4404913533436172 0 
    outer loop
      vertex -3 -5.51091059616309e-16 0 
      vertex -3 -5.51091059616309e-16 3 
      vertex -2.853169548885461 0.9270509831248417 3 
    endloop
  endfacet
  facet normal 0 0 -2.781152949374526 
    outer loop
      vertex -2.853169548885461 0.9270509831248417 0 
      vertex -2.427050983124843 1.7633557568774187 0 
      vertex 0 0 0 
    endloop
  endfacet
  facet normal 0 0 -2.781152949374526 
    outer loop
      vertex -2.853169548885461 0.9270509831248417 3 
      vertex -2.427050983124843 1.7633557568774187 3 
      vertex 0 0 3 
    endloop
  endfacet
  facet normal 2.5089143212577314 -1.2783556972818544 0 
    outer loop
      vertex -2.853169548885461 0.9270509831248417 0 
      vertex -2.427050983124843 1.7633557568774187 0 
      vertex -2.427050983124843 1.7633557568774187 3 
    endloop
  endfacet
  facet normal -2.5089143212577314 1.2783556972818544 0 
    outer loop
      vertex -2.853169548885461 0.9270509831248417 0 
      vertex -2.853169548885461 0.9270509831248417 3 
      vertex -2.427050983124843 1.7633557568774187 3 
    endloop
  endfacet
  facet normal 0 0 -2.781152949374527 
    outer loop
      vertex -2.427050983124843 1.7633557568774187 0 
      vertex -1.76335575687742 2.427050983124842 0 
      vertex 0 0 0 
    endloop
  endfacet
  facet normal 0 0 -2.781152949374527 
    outer loop
      vertex -2.427050983124843 1.7633557568774187 3 
      vertex -1.76335575687742 2.427050983124842 3 
      vertex 0 0 3 
    endloop
  endfacet
  facet normal 1.9910856787422695 -1.9910856787422682 0 
    outer loop
      vertex -2.427050983124843 1.7633557568774187 0 
      vertex -1.76335575687742 2.427050983124842 0 
      vertex -1.76335575687742 2.427050983124842 3 
    endloop
  endfacet
  facet normal -1.9910856787422695 1.9910856787422682 0 
    outer loop
      vertex -2.427050983124843 1.7633557568774187 0 
      vertex -2.427050983124843 1.7633557568774187 3 
      vertex -1.76335575687742 2.427050983124842 3 
    endloop
  endfacet
  facet normal 0 0 -2.7811529493745266 
    outer loop
      vertex -1.76335575687742 2.427050983124842 0 
      vertex -0.927050983124843 2.8531695488854605 0 
      vertex 0 0 0 
    endloop
  endfacet
  facet normal 0 0 -2.7811529493745266 
    outer loop
      vertex -1.76335575687742 2.427050983124842 3 
      vertex -0.927050983124843 2.8531695488854605 3 
      vertex 0 0 3 
    endloop
  endfacet
  facet normal 1.2783556972818557 -2.5089143212577314 0 
    outer loop
      vertex -1.76335575687742 2.427050983124842 0 
      vertex -0.927050983124843 2.8531695488854605 0 
      vertex -0.927050983124843 2.8531695488854605 3 
    endloop
  endfacet
  facet normal -1.2783556972818557 2.5089143212577314 0 
    outer loop
      vertex -1.76335575687742 2.427050983124842 0 
      vertex -1.76335575687742 2.427050983124842 3 
      vertex -0.927050983124843 2.8531695488854605 3 
    endloop
  endfacet
  facet normal 0 0 -2.781152949374527 
    outer loop
      vertex -0.927050983124843 2.8531695488854605 0 
      vertex -7.347880794884119e-16 3 0 
      vertex 0 0 0 
    endloop
  endfacet
  facet normal 0 0 -2.781152949374527 
    outer loop
      vertex -0.927050983124843 2.8531695488854605 3 
      vertex -7.347880794884119e-16 3 3 
      vertex 0 0 3 
    endloop
  endfacet
  facet normal 0.44049135334361855 -2.7811529493745266 0 
    outer loop
      vertex -0.927050983124843 2.8531695488854605 0 
      vertex -7.347880794884119e-16 3 0 
      vertex -7.347880794884119e-16 3 3 
    endloop
  endfacet
  facet normal -0.44049135334361855 2.7811529493745266 0 
    outer loop
      vertex -0.927050983124843 2.8531695488854605 0 
      vertex -0.927050983124843 2.8531695488854605 3 
      vertex -7.347880794884119e-16 3 3 
    endloop
  endfacet
endsolid test