solid test
  facet normal 0.0 0.0 -0.3090169943749474 
    outer loop
      vertex 0.0 1.0 0.0 
      vertex 0.3090169943749474 0.9510565162951535 0.0 
      vertex 0 0 0 
    endloop
  endfacet
  facet normal 0.0 0.0 -0.3090169943749474 
    outer loop
      vertex 0.0 1.0 4.0 
      vertex 0.3090169943749474 0.9510565162951535 4.0 
      vertex 0.0 0.0 4.0 
    endloop
  endfacet
  facet normal -0.19577393481938588 -1.2360679774997896 0.0 
    outer loop
      vertex 0.0 1.0 0.0 
      vertex 0.3090169943749474 0.9510565162951535 0.0 
      vertex 0.3090169943749474 0.9510565162951535 4.0 
    endloop
  endfacet
  facet normal 0.19577393481938588 1.2360679774997896 -0.0 
    outer loop
      vertex 0.0 1.0 0.0 
      vertex 0.0 1.0 4.0 
      vertex 0.3090169943749474 0.9510565162951535 4.0 
    endloop
  endfacet
  facet normal 0.0 -0.0 -0.30901699437494745 
    outer loop
      vertex 0.3090169943749474 0.9510565162951535 0.0 
      vertex 0.5877852522924731 0.8090169943749475 0.0 
      vertex 0 0 0 
    endloop
  endfacet
  facet normal 0.0 -0.0 -0.30901699437494745 
    outer loop
      vertex 0.3090169943749474 0.9510565162951535 4.0 
      vertex 0.5877852522924731 0.8090169943749475 4.0 
      vertex 0.0 0.0 4.0 
    endloop
  endfacet
  facet normal -0.5681580876808243 -1.115073031670103 0.0 
    outer loop
      vertex 0.3090169943749474 0.9510565162951535 0.0 
      vertex 0.5877852522924731 0.8090169943749475 0.0 
      vertex 0.5877852522924731 0.8090169943749475 4.0 
    endloop
  endfacet
  facet normal 0.5681580876808243 1.115073031670103 -0.0 
    outer loop
      vertex 0.3090169943749474 0.9510565162951535 0.0 
      vertex 0.3090169943749474 0.9510565162951535 4.0 
      vertex 0.5877852522924731 0.8090169943749475 4.0 
    endloop
  endfacet
  facet normal 0.0 -0.0 -0.30901699437494745 
    outer loop
      vertex 0.5877852522924731 0.8090169943749475 0.0 
      vertex 0.8090169943749475 0.5877852522924731 0.0 
      vertex 0 0 0 
    endloop
  endfacet
  facet normal 0.0 -0.0 -0.30901699437494745 
    outer loop
      vertex 0.5877852522924731 0.8090169943749475 4.0 
      vertex 0.8090169943749475 0.5877852522924731 4.0 
      vertex 0.0 0.0 4.0 
    endloop
  endfacet
  facet normal -0.8849269683298973 -0.8849269683298973 0.0 
    outer loop
      vertex 0.5877852522924731 0.8090169943749475 0.0 
      vertex 0.8090169943749475 0.5877852522924731 0.0 
      vertex 0.8090169943749475 0.5877852522924731 4.0 
    endloop
  endfacet
  facet normal 0.8849269683298973 0.8849269683298973 -0.0 
    outer loop
      vertex 0.5877852522924731 0.8090169943749475 0.0 
      vertex 0.5877852522924731 0.8090169943749475 4.0 
      vertex 0.8090169943749475 0.5877852522924731 4.0 
    endloop
  endfacet
  facet normal 0.0 -0.0 -0.30901699437494734 
    outer loop
      vertex 0.8090169943749475 0.5877852522924731 0.0 
      vertex 0.9510565162951535 0.30901699437494745 0.0 
      vertex 0 0 0 
    endloop
  endfacet
  facet normal 0.0 -0.0 -0.30901699437494734 
    outer loop
      vertex 0.8090169943749475 0.5877852522924731 4.0 
      vertex 0.9510565162951535 0.30901699437494745 4.0 
      vertex 0.0 0.0 4.0 
    endloop
  endfacet
  facet normal -1.1150730316701027 -0.5681580876808243 0.0 
    outer loop
      vertex 0.8090169943749475 0.5877852522924731 0.0 
      vertex 0.9510565162951535 0.30901699437494745 0.0 
      vertex 0.9510565162951535 0.30901699437494745 4.0 
    endloop
  endfacet
  facet normal 1.1150730316701027 0.5681580876808243 -0.0 
    outer loop
      vertex 0.8090169943749475 0.5877852522924731 0.0 
      vertex 0.8090169943749475 0.5877852522924731 4.0 
      vertex 0.9510565162951535 0.30901699437494745 4.0 
    endloop
  endfacet
  facet normal 0.0 -0.0 -0.3090169943749474 
    outer loop
      vertex 0.9510565162951535 0.30901699437494745 0.0 
      vertex 1.0 6.123233995736766e-17 0.0 
      vertex 0 0 0 
    endloop
  endfacet
  facet normal 0.0 -0.0 -0.3090169943749474 
    outer loop
      vertex 0.9510565162951535 0.30901699437494745 4.0 
      vertex 1.0 6.123233995736766e-17 4.0 
      vertex 0.0 0.0 4.0 
    endloop
  endfacet
  facet normal -1.2360679774997896 -0.19577393481938588 0.0 
    outer loop
      vertex 0.9510565162951535 0.30901699437494745 0.0 
      vertex 1.0 6.123233995736766e-17 0.0 
      vertex 1.0 6.123233995736766e-17 4.0 
    endloop
  endfacet
  facet normal 1.2360679774997896 0.19577393481938588 -0.0 
    outer loop
      vertex 0.9510565162951535 0.30901699437494745 0.0 
      vertex 0.9510565162951535 0.30901699437494745 4.0 
      vertex 1.0 6.123233995736766e-17 4.0 
    endloop
  endfacet
  facet normal 0.0 0.0 -0.3090169943749474 
    outer loop
      vertex 1.0 6.123233995736766e-17 0.0 
      vertex 0.9510565162951536 -0.30901699437494734 0.0 
      vertex 0 0 0 
    endloop
  endfacet
  facet normal 0.0 0.0 -0.3090169943749474 
    outer loop
      vertex 1.0 6.123233995736766e-17 4.0 
      vertex 0.9510565162951536 -0.30901699437494734 4.0 
      vertex 0.0 0.0 4.0 
    endloop
  endfacet
  facet normal -1.2360679774997896 0.19577393481938543 0.0 
    outer loop
      vertex 1.0 6.123233995736766e-17 0.0 
      vertex 0.9510565162951536 -0.30901699437494734 0.0 
      vertex 0.9510565162951536 -0.30901699437494734 4.0 
    endloop
  endfacet
  facet normal 1.2360679774997896 -0.19577393481938543 0.0 
    outer loop
      vertex 1.0 6.123233995736766e-17 0.0 
      vertex 1.0 6.123233995736766e-17 4.0 
      vertex 0.9510565162951536 -0.30901699437494734 4.0 
    endloop
  endfacet
  facet normal -0.0 0.0 -0.30901699437494745 
    outer loop
      vertex 0.9510565162951536 -0.30901699437494734 0.0 
      vertex 0.8090169943749475 -0.587785252292473 0.0 
      vertex 0 0 0 
    endloop
  endfacet
  facet normal -0.0 0.0 -0.30901699437494745 
    outer loop
      vertex 0.9510565162951536 -0.30901699437494734 4.0 
      vertex 0.8090169943749475 -0.587785252292473 4.0 
      vertex 0.0 0.0 4.0 
    endloop
  endfacet
  facet normal -1.1150730316701027 0.5681580876808248 0.0 
    outer loop
      vertex 0.9510565162951536 -0.30901699437494734 0.0 
      vertex 0.8090169943749475 -0.587785252292473 0.0 
      vertex 0.8090169943749475 -0.587785252292473 4.0 
    endloop
  endfacet
  facet normal 1.1150730316701027 -0.5681580876808248 0.0 
    outer loop
      vertex 0.9510565162951536 -0.30901699437494734 0.0 
      vertex 0.9510565162951536 -0.30901699437494734 4.0 
      vertex 0.8090169943749475 -0.587785252292473 4.0 
    endloop
  endfacet
  facet normal -0.0 0.0 -0.30901699437494734 
    outer loop
      vertex 0.8090169943749475 -0.587785252292473 0.0 
      vertex 0.5877852522924732 -0.8090169943749473 0.0 
      vertex 0 0 0 
    endloop
  endfacet
  facet normal -0.0 0.0 -0.30901699437494734 
    outer loop
      vertex 0.8090169943749475 -0.587785252292473 4.0 
      vertex 0.5877852522924732 -0.8090169943749473 4.0 
      vertex 0.0 0.0 4.0 
    endloop
  endfacet
  facet normal -0.8849269683298973 0.8849269683298968 0.0 
    outer loop
      vertex 0.8090169943749475 -0.587785252292473 0.0 
      vertex 0.5877852522924732 -0.8090169943749473 0.0 
      vertex 0.5877852522924732 -0.8090169943749473 4.0 
    endloop
  endfacet
  facet normal 0.8849269683298973 -0.8849269683298968 0.0 
    outer loop
      vertex 0.8090169943749475 -0.587785252292473 0.0 
      vertex 0.8090169943749475 -0.587785252292473 4.0 
      vertex 0.5877852522924732 -0.8090169943749473 4.0 
    endloop
  endfacet
  facet normal -0.0 0.0 -0.30901699437494745 
    outer loop
      vertex 0.5877852522924732 -0.8090169943749473 0.0 
      vertex 0.3090169943749475 -0.9510565162951535 0.0 
      vertex 0 0 0 
    endloop
  endfacet
  facet normal -0.0 0.0 -0.30901699437494745 
    outer loop
      vertex 0.5877852522924732 -0.8090169943749473 4.0 
      vertex 0.3090169943749475 -0.9510565162951535 4.0 
      vertex 0.0 0.0 4.0 
    endloop
  endfacet
  facet normal -0.5681580876808248 1.115073031670103 0.0 
    outer loop
      vertex 0.5877852522924732 -0.8090169943749473 0.0 
      vertex 0.3090169943749475 -0.9510565162951535 0.0 
      vertex 0.3090169943749475 -0.9510565162951535 4.0 
    endloop
  endfacet
  facet normal 0.5681580876808248 -1.115073031670103 0.0 
    outer loop
      vertex 0.5877852522924732 -0.8090169943749473 0.0 
      vertex 0.5877852522924732 -0.8090169943749473 4.0 
      vertex 0.3090169943749475 -0.9510565162951535 4.0 
    endloop
  endfacet
  facet normal -0.0 0.0 -0.3090169943749474 
    outer loop
      vertex 0.3090169943749475 -0.9510565162951535 0.0 
      vertex 1.2246467991473532e-16 -1.0 0.0 
      vertex 0 0 0 
    endloop
  endfacet
  facet normal -0.0 0.0 -0.3090169943749474 
    outer loop
      vertex 0.3090169943749475 -0.9510565162951535 4.0 
      vertex 1.2246467991473532e-16 -1.0 4.0 
      vertex 0.0 0.0 4.0 
    endloop
  endfacet
  facet normal -0.19577393481938588 1.2360679774997896 0.0 
    outer loop
      vertex 0.3090169943749475 -0.9510565162951535 0.0 
      vertex 1.2246467991473532e-16 -1.0 0.0 
      vertex 1.2246467991473532e-16 -1.0 4.0 
    endloop
  endfacet
  facet normal 0.19577393481938588 -1.2360679774997896 0.0 
    outer loop
      vertex 0.3090169943749475 -0.9510565162951535 0.0 
      vertex 0.3090169943749475 -0.9510565162951535 4.0 
      vertex 1.2246467991473532e-16 -1.0 4.0 
    endloop
  endfacet
  facet normal 0.0 0.0 -0.30901699437494784 
    outer loop
      vertex 1.2246467991473532e-16 -1.0 0.0 
      vertex -0.30901699437494773 -0.9510565162951535 0.0 
      vertex 0 0 0 
    endloop
  endfacet
  facet normal 0.0 0.0 -0.30901699437494784 
    outer loop
      vertex 1.2246467991473532e-16 -1.0 4.0 
      vertex -0.30901699437494773 -0.9510565162951535 4.0 
      vertex 0.0 0.0 4.0 
    endloop
  endfacet
  facet normal 0.19577393481938588 1.2360679774997914 0.0 
    outer loop
      vertex 1.2246467991473532e-16 -1.0 0.0 
      vertex -0.30901699437494773 -0.9510565162951535 0.0 
      vertex -0.30901699437494773 -0.9510565162951535 4.0 
    endloop
  endfacet
  facet normal -0.19577393481938588 -1.2360679774997914 0.0 
    outer loop
      vertex 1.2246467991473532e-16 -1.0 0.0 
      vertex 1.2246467991473532e-16 -1.0 4.0 
      vertex -0.30901699437494773 -0.9510565162951535 4.0 
    endloop
  endfacet
  facet normal 0.0 0.0 -0.309016994374947 
    outer loop
      vertex -0.30901699437494773 -0.9510565162951535 0.0 
      vertex -0.587785252292473 -0.8090169943749475 0.0 
      vertex 0 0 0 
    endloop
  endfacet
  facet normal 0.0 0.0 -0.309016994374947 
    outer loop
      vertex -0.30901699437494773 -0.9510565162951535 4.0 
      vertex -0.587785252292473 -0.8090169943749475 4.0 
      vertex 0.0 0.0 4.0 
    endloop
  endfacet
  facet normal 0.5681580876808243 1.1150730316701012 0.0 
    outer loop
      vertex -0.30901699437494773 -0.9510565162951535 0.0 
      vertex -0.587785252292473 -0.8090169943749475 0.0 
      vertex -0.587785252292473 -0.8090169943749475 4.0 
    endloop
  endfacet
  facet normal -0.5681580876808243 -1.1150730316701012 0.0 
    outer loop
      vertex -0.30901699437494773 -0.9510565162951535 0.0 
      vertex -0.30901699437494773 -0.9510565162951535 4.0 
      vertex -0.587785252292473 -0.8090169943749475 4.0 
    endloop
  endfacet
  facet normal 0.0 0.0 -0.30901699437494734 
    outer loop
      vertex -0.587785252292473 -0.8090169943749475 0.0 
      vertex -0.8090169943749473 -0.5877852522924732 0.0 
      vertex 0 0 0 
    endloop
  endfacet
  facet normal 0.0 0.0 -0.30901699437494734 
    outer loop
      vertex -0.587785252292473 -0.8090169943749475 4.0 
      vertex -0.8090169943749473 -0.5877852522924732 4.0 
      vertex 0.0 0.0 4.0 
    endloop
  endfacet
  facet normal 0.8849269683298968 0.8849269683298973 0.0 
    outer loop
      vertex -0.587785252292473 -0.8090169943749475 0.0 
      vertex -0.8090169943749473 -0.5877852522924732 0.0 
      vertex -0.8090169943749473 -0.5877852522924732 4.0 
    endloop
  endfacet
  facet normal -0.8849269683298968 -0.8849269683298973 0.0 
    outer loop
      vertex -0.587785252292473 -0.8090169943749475 0.0 
      vertex -0.587785252292473 -0.8090169943749475 4.0 
      vertex -0.8090169943749473 -0.5877852522924732 4.0 
    endloop
  endfacet
  facet normal 0.0 0.0 -0.30901699437494745 
    outer loop
      vertex -0.8090169943749473 -0.5877852522924732 0.0 
      vertex -0.9510565162951535 -0.30901699437494756 0.0 
      vertex 0 0 0 
    endloop
  endfacet
  facet normal 0.0 0.0 -0.30901699437494745 
    outer loop
      vertex -0.8090169943749473 -0.5877852522924732 4.0 
      vertex -0.9510565162951535 -0.30901699437494756 4.0 
      vertex 0.0 0.0 4.0 
    endloop
  endfacet
  facet normal 1.1150730316701027 0.5681580876808248 0.0 
    outer loop
      vertex -0.8090169943749473 -0.5877852522924732 0.0 
      vertex -0.9510565162951535 -0.30901699437494756 0.0 
      vertex -0.9510565162951535 -0.30901699437494756 4.0 
    endloop
  endfacet
  facet normal -1.1150730316701027 -0.5681580876808248 0.0 
    outer loop
      vertex -0.8090169943749473 -0.5877852522924732 0.0 
      vertex -0.8090169943749473 -0.5877852522924732 4.0 
      vertex -0.9510565162951535 -0.30901699437494756 4.0 
    endloop
  endfacet
  facet normal 0.0 0.0 -0.3090169943749474 
    outer loop
      vertex -0.9510565162951535 -0.30901699437494756 0.0 
      vertex -1.0 -1.8369701987210297e-16 0.0 
      vertex 0 0 0 
    endloop
  endfacet
  facet normal 0.0 0.0 -0.3090169943749474 
    outer loop
      vertex -0.9510565162951535 -0.30901699437494756 4.0 
      vertex -1.0 -1.8369701987210297e-16 4.0 
      vertex 0.0 0.0 4.0 
    endloop
  endfacet
  facet normal 1.2360679774997896 0.19577393481938588 0.0 
    outer loop
      vertex -0.9510565162951535 -0.30901699437494756 0.0 
      vertex -1.0 -1.8369701987210297e-16 0.0 
      vertex -1.0 -1.8369701987210297e-16 4.0 
    endloop
  endfacet
  facet normal -1.2360679774997896 -0.19577393481938588 0.0 
    outer loop
      vertex -0.9510565162951535 -0.30901699437494756 0.0 
      vertex -0.9510565162951535 -0.30901699437494756 4.0 
      vertex -1.0 -1.8369701987210297e-16 4.0 
    endloop
  endfacet
  facet normal 0.0 0.0 -0.3090169943749474 
    outer loop
      vertex -1.0 -1.8369701987210297e-16 0.0 
      vertex -0.9510565162951536 0.30901699437494723 0.0 
      vertex 0 0 0 
    endloop
  endfacet
  facet normal 0.0 0.0 -0.3090169943749474 
    outer loop
      vertex -1.0 -1.8369701987210297e-16 4.0 
      vertex -0.9510565162951536 0.30901699437494723 4.0 
      vertex 0.0 0.0 4.0 
    endloop
  endfacet
  facet normal 1.2360679774997896 -0.19577393481938543 0.0 
    outer loop
      vertex -1.0 -1.8369701987210297e-16 0.0 
      vertex -0.9510565162951536 0.30901699437494723 0.0 
      vertex -0.9510565162951536 0.30901699437494723 4.0 
    endloop
  endfacet
  facet normal -1.2360679774997896 0.19577393481938543 0.0 
    outer loop
      vertex -1.0 -1.8369701987210297e-16 0.0 
      vertex -1.0 -1.8369701987210297e-16 4.0 
      vertex -0.9510565162951536 0.30901699437494723 4.0 
    endloop
  endfacet
  facet normal 0.0 0.0 -0.3090169943749474 
    outer loop
      vertex -0.9510565162951536 0.30901699437494723 0.0 
      vertex -0.8090169943749476 0.5877852522924729 0.0 
      vertex 0 0 0 
    endloop
  endfacet
  facet normal 0.0 0.0 -0.3090169943749474 
    outer loop
      vertex -0.9510565162951536 0.30901699437494723 4.0 
      vertex -0.8090169943749476 0.5877852522924729 4.0 
      vertex 0.0 0.0 4.0 
    endloop
  endfacet
  facet normal 1.1150730316701027 -0.5681580876808243 0.0 
    outer loop
      vertex -0.9510565162951536 0.30901699437494723 0.0 
      vertex -0.8090169943749476 0.5877852522924729 0.0 
      vertex -0.8090169943749476 0.5877852522924729 4.0 
    endloop
  endfacet
  facet normal -1.1150730316701027 0.5681580876808243 0.0 
    outer loop
      vertex -0.9510565162951536 0.30901699437494723 0.0 
      vertex -0.9510565162951536 0.30901699437494723 4.0 
      vertex -0.8090169943749476 0.5877852522924729 4.0 
    endloop
  endfacet
  facet normal 0.0 0.0 -0.30901699437494745 
    outer loop
      vertex -0.8090169943749476 0.5877852522924729 0.0 
      vertex -0.5877852522924734 0.8090169943749473 0.0 
      vertex 0 0 0 
    endloop
  endfacet
  facet normal 0.0 0.0 -0.30901699437494745 
    outer loop
      vertex -0.8090169943749476 0.5877852522924729 4.0 
      vertex -0.5877852522924734 0.8090169943749473 4.0 
      vertex 0.0 0.0 4.0 
    endloop
  endfacet
  facet normal 0.8849269683298977 -0.8849269683298968 0.0 
    outer loop
      vertex -0.8090169943749476 0.5877852522924729 0.0 
      vertex -0.5877852522924734 0.8090169943749473 0.0 
      vertex -0.5877852522924734 0.8090169943749473 4.0 
    endloop
  endfacet
  facet normal -0.8849269683298977 0.8849269683298968 0.0 
    outer loop
      vertex -0.8090169943749476 0.5877852522924729 0.0 
      vertex -0.8090169943749476 0.5877852522924729 4.0 
      vertex -0.5877852522924734 0.8090169943749473 4.0 
    endloop
  endfacet
  facet normal 0.0 0.0 -0.30901699437494745 
    outer loop
      vertex -0.5877852522924734 0.8090169943749473 0.0 
      vertex -0.3090169943749477 0.9510565162951535 0.0 
      vertex 0 0 0 
    endloop
  endfacet
  facet normal 0.0 0.0 -0.30901699437494745 
    outer loop
      vertex -0.5877852522924734 0.8090169943749473 4.0 
      vertex -0.3090169943749477 0.9510565162951535 4.0 
      vertex 0.0 0.0 4.0 
    endloop
  endfacet
  facet normal 0.5681580876808248 -1.1150730316701027 0.0 
    outer loop
      vertex -0.5877852522924734 0.8090169943749473 0.0 
      vertex -0.3090169943749477 0.9510565162951535 0.0 
      vertex -0.3090169943749477 0.9510565162951535 4.0 
    endloop
  endfacet
  facet normal -0.5681580876808248 1.1150730316701027 0.0 
    outer loop
      vertex -0.5877852522924734 0.8090169943749473 0.0 
      vertex -0.5877852522924734 0.8090169943749473 4.0 
      vertex -0.3090169943749477 0.9510565162951535 4.0 
    endloop
  endfacet
  facet normal 0.0 0.0 -0.30901699437494745 
    outer loop
      vertex -0.3090169943749477 0.9510565162951535 0.0 
      vertex -2.4492935982947064e-16 1.0 0.0 
      vertex 0 0 0 
    endloop
  endfacet
  facet normal 0.0 0.0 -0.30901699437494745 
    outer loop
      vertex -0.3090169943749477 0.9510565162951535 4.0 
      vertex -2.4492935982947064e-16 1.0 4.0 
      vertex 0.0 0.0 4.0 
    endloop
  endfacet
  facet normal 0.19577393481938588 -1.2360679774997898 0.0 
    outer loop
      vertex -0.3090169943749477 0.9510565162951535 0.0 
      vertex -2.4492935982947064e-16 1.0 0.0 
      vertex -2.4492935982947064e-16 1.0 4.0 
    endloop
  endfacet
  facet normal -0.19577393481938588 1.2360679774997898 0.0 
    outer loop
      vertex -0.3090169943749477 0.9510565162951535 0.0 
      vertex -0.3090169943749477 0.9510565162951535 4.0 
      vertex -2.4492935982947064e-16 1.0 4.0 
    endloop
  endfacet
  facet normal 0.0 0.0 -0.3090169943749474 
    outer loop
      vertex -2.4492935982947064e-16 1.0 0.0 
      vertex 0.3090169943749472 0.9510565162951536 0.0 
      vertex 0 0 0 
    endloop
  endfacet
  facet normal 0.0 0.0 -0.3090169943749474 
    outer loop
      vertex -2.4492935982947064e-16 1.0 4.0 
      vertex 0.3090169943749472 0.9510565162951536 4.0 
      vertex 0.0 0.0 4.0 
    endloop
  endfacet
  facet normal -0.19577393481938543 -1.2360679774997896 0.0 
    outer loop
      vertex -2.4492935982947064e-16 1.0 0.0 
      vertex 0.3090169943749472 0.9510565162951536 0.0 
      vertex 0.3090169943749472 0.9510565162951536 4.0 
    endloop
  endfacet
  facet normal 0.19577393481938543 1.2360679774997896 -0.0 
    outer loop
      vertex -2.4492935982947064e-16 1.0 0.0 
      vertex -2.4492935982947064e-16 1.0 4.0 
      vertex 0.3090169943749472 0.9510565162951536 4.0 
    endloop
  endfacet
endsolid test